%TF.GenerationSoftware,KiCad,Pcbnew,(5.1.9)-1*%
%TF.CreationDate,2021-02-09T16:44:42+01:00*%
%TF.ProjectId,Pro,50726f2e-6b69-4636-9164-5f7063625858,rev?*%
%TF.SameCoordinates,Original*%
%TF.FileFunction,Copper,L1,Top*%
%TF.FilePolarity,Positive*%
%FSLAX46Y46*%
G04 Gerber Fmt 4.6, Leading zero omitted, Abs format (unit mm)*
G04 Created by KiCad (PCBNEW (5.1.9)-1) date 2021-02-09 16:44:42*
%MOMM*%
%LPD*%
G01*
G04 APERTURE LIST*
%TA.AperFunction,ComponentPad*%
%ADD10O,1.700000X1.700000*%
%TD*%
%TA.AperFunction,ComponentPad*%
%ADD11R,1.700000X1.700000*%
%TD*%
%TA.AperFunction,Conductor*%
%ADD12C,0.250000*%
%TD*%
%TA.AperFunction,Conductor*%
%ADD13C,0.254000*%
%TD*%
%TA.AperFunction,Conductor*%
%ADD14C,0.100000*%
%TD*%
G04 APERTURE END LIST*
D10*
%TO.P,P1,4*%
%TO.N,/E+*%
X47117000Y-90599000D03*
%TO.P,P1,3*%
%TO.N,/A+*%
X47117000Y-93139000D03*
%TO.P,P1,2*%
%TO.N,/A-*%
X47117000Y-95679000D03*
D11*
%TO.P,P1,1*%
%TO.N,/E-*%
X47117000Y-98219000D03*
%TD*%
D10*
%TO.P,J1,4*%
%TO.N,/DO*%
X75311000Y-90624000D03*
%TO.P,J1,3*%
%TO.N,/CLK*%
X75311000Y-93164000D03*
%TO.P,J1,2*%
%TO.N,/E+*%
X75311000Y-95704000D03*
D11*
%TO.P,J1,1*%
%TO.N,GND*%
X75311000Y-98244000D03*
%TD*%
%TO.P,R3,1*%
%TO.N,GND*%
%TA.AperFunction,SMDPad,CuDef*%
G36*
G01*
X70983001Y-99507000D02*
X69732999Y-99507000D01*
G75*
G02*
X69483000Y-99257001I0J249999D01*
G01*
X69483000Y-98631999D01*
G75*
G02*
X69732999Y-98382000I249999J0D01*
G01*
X70983001Y-98382000D01*
G75*
G02*
X71233000Y-98631999I0J-249999D01*
G01*
X71233000Y-99257001D01*
G75*
G02*
X70983001Y-99507000I-249999J0D01*
G01*
G37*
%TD.AperFunction*%
%TO.P,R3,2*%
%TA.AperFunction,SMDPad,CuDef*%
G36*
G01*
X70983001Y-96582000D02*
X69732999Y-96582000D01*
G75*
G02*
X69483000Y-96332001I0J249999D01*
G01*
X69483000Y-95706999D01*
G75*
G02*
X69732999Y-95457000I249999J0D01*
G01*
X70983001Y-95457000D01*
G75*
G02*
X71233000Y-95706999I0J-249999D01*
G01*
X71233000Y-96332001D01*
G75*
G02*
X70983001Y-96582000I-249999J0D01*
G01*
G37*
%TD.AperFunction*%
%TD*%
%TO.P,U1,1*%
%TO.N,/E+*%
%TA.AperFunction,SMDPad,CuDef*%
G36*
G01*
X61350000Y-90205000D02*
X61350000Y-89905000D01*
G75*
G02*
X61500000Y-89755000I150000J0D01*
G01*
X62950000Y-89755000D01*
G75*
G02*
X63100000Y-89905000I0J-150000D01*
G01*
X63100000Y-90205000D01*
G75*
G02*
X62950000Y-90355000I-150000J0D01*
G01*
X61500000Y-90355000D01*
G75*
G02*
X61350000Y-90205000I0J150000D01*
G01*
G37*
%TD.AperFunction*%
%TO.P,U1,2*%
%TO.N,GND*%
%TA.AperFunction,SMDPad,CuDef*%
G36*
G01*
X61350000Y-91475000D02*
X61350000Y-91175000D01*
G75*
G02*
X61500000Y-91025000I150000J0D01*
G01*
X62950000Y-91025000D01*
G75*
G02*
X63100000Y-91175000I0J-150000D01*
G01*
X63100000Y-91475000D01*
G75*
G02*
X62950000Y-91625000I-150000J0D01*
G01*
X61500000Y-91625000D01*
G75*
G02*
X61350000Y-91475000I0J150000D01*
G01*
G37*
%TD.AperFunction*%
%TO.P,U1,3*%
%TO.N,Net-(U1-Pad3)*%
%TA.AperFunction,SMDPad,CuDef*%
G36*
G01*
X61350000Y-92745000D02*
X61350000Y-92445000D01*
G75*
G02*
X61500000Y-92295000I150000J0D01*
G01*
X62950000Y-92295000D01*
G75*
G02*
X63100000Y-92445000I0J-150000D01*
G01*
X63100000Y-92745000D01*
G75*
G02*
X62950000Y-92895000I-150000J0D01*
G01*
X61500000Y-92895000D01*
G75*
G02*
X61350000Y-92745000I0J150000D01*
G01*
G37*
%TD.AperFunction*%
%TO.P,U1,4*%
%TO.N,GND*%
%TA.AperFunction,SMDPad,CuDef*%
G36*
G01*
X61350000Y-94015000D02*
X61350000Y-93715000D01*
G75*
G02*
X61500000Y-93565000I150000J0D01*
G01*
X62950000Y-93565000D01*
G75*
G02*
X63100000Y-93715000I0J-150000D01*
G01*
X63100000Y-94015000D01*
G75*
G02*
X62950000Y-94165000I-150000J0D01*
G01*
X61500000Y-94165000D01*
G75*
G02*
X61350000Y-94015000I0J150000D01*
G01*
G37*
%TD.AperFunction*%
%TO.P,U1,5*%
%TO.N,Net-(C2-Pad1)*%
%TA.AperFunction,SMDPad,CuDef*%
G36*
G01*
X61350000Y-95285000D02*
X61350000Y-94985000D01*
G75*
G02*
X61500000Y-94835000I150000J0D01*
G01*
X62950000Y-94835000D01*
G75*
G02*
X63100000Y-94985000I0J-150000D01*
G01*
X63100000Y-95285000D01*
G75*
G02*
X62950000Y-95435000I-150000J0D01*
G01*
X61500000Y-95435000D01*
G75*
G02*
X61350000Y-95285000I0J150000D01*
G01*
G37*
%TD.AperFunction*%
%TO.P,U1,6*%
%TO.N,Net-(C2-Pad2)*%
%TA.AperFunction,SMDPad,CuDef*%
G36*
G01*
X61350000Y-96555000D02*
X61350000Y-96255000D01*
G75*
G02*
X61500000Y-96105000I150000J0D01*
G01*
X62950000Y-96105000D01*
G75*
G02*
X63100000Y-96255000I0J-150000D01*
G01*
X63100000Y-96555000D01*
G75*
G02*
X62950000Y-96705000I-150000J0D01*
G01*
X61500000Y-96705000D01*
G75*
G02*
X61350000Y-96555000I0J150000D01*
G01*
G37*
%TD.AperFunction*%
%TO.P,U1,7*%
%TO.N,Net-(C1-Pad1)*%
%TA.AperFunction,SMDPad,CuDef*%
G36*
G01*
X61350000Y-97825000D02*
X61350000Y-97525000D01*
G75*
G02*
X61500000Y-97375000I150000J0D01*
G01*
X62950000Y-97375000D01*
G75*
G02*
X63100000Y-97525000I0J-150000D01*
G01*
X63100000Y-97825000D01*
G75*
G02*
X62950000Y-97975000I-150000J0D01*
G01*
X61500000Y-97975000D01*
G75*
G02*
X61350000Y-97825000I0J150000D01*
G01*
G37*
%TD.AperFunction*%
%TO.P,U1,8*%
%TO.N,Net-(C1-Pad2)*%
%TA.AperFunction,SMDPad,CuDef*%
G36*
G01*
X61350000Y-99095000D02*
X61350000Y-98795000D01*
G75*
G02*
X61500000Y-98645000I150000J0D01*
G01*
X62950000Y-98645000D01*
G75*
G02*
X63100000Y-98795000I0J-150000D01*
G01*
X63100000Y-99095000D01*
G75*
G02*
X62950000Y-99245000I-150000J0D01*
G01*
X61500000Y-99245000D01*
G75*
G02*
X61350000Y-99095000I0J150000D01*
G01*
G37*
%TD.AperFunction*%
%TO.P,U1,9*%
%TO.N,/E-*%
%TA.AperFunction,SMDPad,CuDef*%
G36*
G01*
X66500000Y-99095000D02*
X66500000Y-98795000D01*
G75*
G02*
X66650000Y-98645000I150000J0D01*
G01*
X68100000Y-98645000D01*
G75*
G02*
X68250000Y-98795000I0J-150000D01*
G01*
X68250000Y-99095000D01*
G75*
G02*
X68100000Y-99245000I-150000J0D01*
G01*
X66650000Y-99245000D01*
G75*
G02*
X66500000Y-99095000I0J150000D01*
G01*
G37*
%TD.AperFunction*%
%TO.P,U1,10*%
%TO.N,/E+*%
%TA.AperFunction,SMDPad,CuDef*%
G36*
G01*
X66500000Y-97825000D02*
X66500000Y-97525000D01*
G75*
G02*
X66650000Y-97375000I150000J0D01*
G01*
X68100000Y-97375000D01*
G75*
G02*
X68250000Y-97525000I0J-150000D01*
G01*
X68250000Y-97825000D01*
G75*
G02*
X68100000Y-97975000I-150000J0D01*
G01*
X66650000Y-97975000D01*
G75*
G02*
X66500000Y-97825000I0J150000D01*
G01*
G37*
%TD.AperFunction*%
%TO.P,U1,11*%
%TO.N,GND*%
%TA.AperFunction,SMDPad,CuDef*%
G36*
G01*
X66500000Y-96555000D02*
X66500000Y-96255000D01*
G75*
G02*
X66650000Y-96105000I150000J0D01*
G01*
X68100000Y-96105000D01*
G75*
G02*
X68250000Y-96255000I0J-150000D01*
G01*
X68250000Y-96555000D01*
G75*
G02*
X68100000Y-96705000I-150000J0D01*
G01*
X66650000Y-96705000D01*
G75*
G02*
X66500000Y-96555000I0J150000D01*
G01*
G37*
%TD.AperFunction*%
%TO.P,U1,12*%
%TO.N,/E-*%
%TA.AperFunction,SMDPad,CuDef*%
G36*
G01*
X66500000Y-95285000D02*
X66500000Y-94985000D01*
G75*
G02*
X66650000Y-94835000I150000J0D01*
G01*
X68100000Y-94835000D01*
G75*
G02*
X68250000Y-94985000I0J-150000D01*
G01*
X68250000Y-95285000D01*
G75*
G02*
X68100000Y-95435000I-150000J0D01*
G01*
X66650000Y-95435000D01*
G75*
G02*
X66500000Y-95285000I0J150000D01*
G01*
G37*
%TD.AperFunction*%
%TO.P,U1,13*%
%TO.N,/E+*%
%TA.AperFunction,SMDPad,CuDef*%
G36*
G01*
X66500000Y-94015000D02*
X66500000Y-93715000D01*
G75*
G02*
X66650000Y-93565000I150000J0D01*
G01*
X68100000Y-93565000D01*
G75*
G02*
X68250000Y-93715000I0J-150000D01*
G01*
X68250000Y-94015000D01*
G75*
G02*
X68100000Y-94165000I-150000J0D01*
G01*
X66650000Y-94165000D01*
G75*
G02*
X66500000Y-94015000I0J150000D01*
G01*
G37*
%TD.AperFunction*%
%TO.P,U1,14*%
%TA.AperFunction,SMDPad,CuDef*%
G36*
G01*
X66500000Y-92745000D02*
X66500000Y-92445000D01*
G75*
G02*
X66650000Y-92295000I150000J0D01*
G01*
X68100000Y-92295000D01*
G75*
G02*
X68250000Y-92445000I0J-150000D01*
G01*
X68250000Y-92745000D01*
G75*
G02*
X68100000Y-92895000I-150000J0D01*
G01*
X66650000Y-92895000D01*
G75*
G02*
X66500000Y-92745000I0J150000D01*
G01*
G37*
%TD.AperFunction*%
%TO.P,U1,15*%
%TO.N,/CLK*%
%TA.AperFunction,SMDPad,CuDef*%
G36*
G01*
X66500000Y-91475000D02*
X66500000Y-91175000D01*
G75*
G02*
X66650000Y-91025000I150000J0D01*
G01*
X68100000Y-91025000D01*
G75*
G02*
X68250000Y-91175000I0J-150000D01*
G01*
X68250000Y-91475000D01*
G75*
G02*
X68100000Y-91625000I-150000J0D01*
G01*
X66650000Y-91625000D01*
G75*
G02*
X66500000Y-91475000I0J150000D01*
G01*
G37*
%TD.AperFunction*%
%TO.P,U1,16*%
%TO.N,/DO*%
%TA.AperFunction,SMDPad,CuDef*%
G36*
G01*
X66500000Y-90205000D02*
X66500000Y-89905000D01*
G75*
G02*
X66650000Y-89755000I150000J0D01*
G01*
X68100000Y-89755000D01*
G75*
G02*
X68250000Y-89905000I0J-150000D01*
G01*
X68250000Y-90205000D01*
G75*
G02*
X68100000Y-90355000I-150000J0D01*
G01*
X66650000Y-90355000D01*
G75*
G02*
X66500000Y-90205000I0J150000D01*
G01*
G37*
%TD.AperFunction*%
%TD*%
%TO.P,C2,2*%
%TO.N,Net-(C2-Pad2)*%
%TA.AperFunction,SMDPad,CuDef*%
G36*
G01*
X57315000Y-90031999D02*
X57315000Y-92232001D01*
G75*
G02*
X57065001Y-92482000I-249999J0D01*
G01*
X56414999Y-92482000D01*
G75*
G02*
X56165000Y-92232001I0J249999D01*
G01*
X56165000Y-90031999D01*
G75*
G02*
X56414999Y-89782000I249999J0D01*
G01*
X57065001Y-89782000D01*
G75*
G02*
X57315000Y-90031999I0J-249999D01*
G01*
G37*
%TD.AperFunction*%
%TO.P,C2,1*%
%TO.N,Net-(C2-Pad1)*%
%TA.AperFunction,SMDPad,CuDef*%
G36*
G01*
X60265000Y-90031999D02*
X60265000Y-92232001D01*
G75*
G02*
X60015001Y-92482000I-249999J0D01*
G01*
X59364999Y-92482000D01*
G75*
G02*
X59115000Y-92232001I0J249999D01*
G01*
X59115000Y-90031999D01*
G75*
G02*
X59364999Y-89782000I249999J0D01*
G01*
X60015001Y-89782000D01*
G75*
G02*
X60265000Y-90031999I0J-249999D01*
G01*
G37*
%TD.AperFunction*%
%TD*%
%TO.P,C1,2*%
%TO.N,Net-(C1-Pad2)*%
%TA.AperFunction,SMDPad,CuDef*%
G36*
G01*
X58649999Y-97063000D02*
X59950001Y-97063000D01*
G75*
G02*
X60200000Y-97312999I0J-249999D01*
G01*
X60200000Y-97963001D01*
G75*
G02*
X59950001Y-98213000I-249999J0D01*
G01*
X58649999Y-98213000D01*
G75*
G02*
X58400000Y-97963001I0J249999D01*
G01*
X58400000Y-97312999D01*
G75*
G02*
X58649999Y-97063000I249999J0D01*
G01*
G37*
%TD.AperFunction*%
%TO.P,C1,1*%
%TO.N,Net-(C1-Pad1)*%
%TA.AperFunction,SMDPad,CuDef*%
G36*
G01*
X58649999Y-94113000D02*
X59950001Y-94113000D01*
G75*
G02*
X60200000Y-94362999I0J-249999D01*
G01*
X60200000Y-95013001D01*
G75*
G02*
X59950001Y-95263000I-249999J0D01*
G01*
X58649999Y-95263000D01*
G75*
G02*
X58400000Y-95013001I0J249999D01*
G01*
X58400000Y-94362999D01*
G75*
G02*
X58649999Y-94113000I249999J0D01*
G01*
G37*
%TD.AperFunction*%
%TD*%
%TO.P,R1,1*%
%TO.N,Net-(C1-Pad1)*%
%TA.AperFunction,SMDPad,CuDef*%
G36*
G01*
X56636500Y-94324998D02*
X56636500Y-95575002D01*
G75*
G02*
X56386502Y-95825000I-249998J0D01*
G01*
X55761498Y-95825000D01*
G75*
G02*
X55511500Y-95575002I0J249998D01*
G01*
X55511500Y-94324998D01*
G75*
G02*
X55761498Y-94075000I249998J0D01*
G01*
X56386502Y-94075000D01*
G75*
G02*
X56636500Y-94324998I0J-249998D01*
G01*
G37*
%TD.AperFunction*%
%TO.P,R1,2*%
%TO.N,/A+*%
%TA.AperFunction,SMDPad,CuDef*%
G36*
G01*
X53711500Y-94324998D02*
X53711500Y-95575002D01*
G75*
G02*
X53461502Y-95825000I-249998J0D01*
G01*
X52836498Y-95825000D01*
G75*
G02*
X52586500Y-95575002I0J249998D01*
G01*
X52586500Y-94324998D01*
G75*
G02*
X52836498Y-94075000I249998J0D01*
G01*
X53461502Y-94075000D01*
G75*
G02*
X53711500Y-94324998I0J-249998D01*
G01*
G37*
%TD.AperFunction*%
%TD*%
%TO.P,R2,2*%
%TO.N,/A-*%
%TA.AperFunction,SMDPad,CuDef*%
G36*
G01*
X53771500Y-96729998D02*
X53771500Y-97980002D01*
G75*
G02*
X53521502Y-98230000I-249998J0D01*
G01*
X52896498Y-98230000D01*
G75*
G02*
X52646500Y-97980002I0J249998D01*
G01*
X52646500Y-96729998D01*
G75*
G02*
X52896498Y-96480000I249998J0D01*
G01*
X53521502Y-96480000D01*
G75*
G02*
X53771500Y-96729998I0J-249998D01*
G01*
G37*
%TD.AperFunction*%
%TO.P,R2,1*%
%TO.N,Net-(C1-Pad2)*%
%TA.AperFunction,SMDPad,CuDef*%
G36*
G01*
X56696500Y-96729998D02*
X56696500Y-97980002D01*
G75*
G02*
X56446502Y-98230000I-249998J0D01*
G01*
X55821498Y-98230000D01*
G75*
G02*
X55571500Y-97980002I0J249998D01*
G01*
X55571500Y-96729998D01*
G75*
G02*
X55821498Y-96480000I249998J0D01*
G01*
X56446502Y-96480000D01*
G75*
G02*
X56696500Y-96729998I0J-249998D01*
G01*
G37*
%TD.AperFunction*%
%TD*%
%TO.P,C3,1*%
%TO.N,/E+*%
%TA.AperFunction,SMDPad,CuDef*%
G36*
G01*
X51339000Y-92232001D02*
X51339000Y-90031999D01*
G75*
G02*
X51588999Y-89782000I249999J0D01*
G01*
X52239001Y-89782000D01*
G75*
G02*
X52489000Y-90031999I0J-249999D01*
G01*
X52489000Y-92232001D01*
G75*
G02*
X52239001Y-92482000I-249999J0D01*
G01*
X51588999Y-92482000D01*
G75*
G02*
X51339000Y-92232001I0J249999D01*
G01*
G37*
%TD.AperFunction*%
%TO.P,C3,2*%
%TO.N,GND*%
%TA.AperFunction,SMDPad,CuDef*%
G36*
G01*
X54289000Y-92232001D02*
X54289000Y-90031999D01*
G75*
G02*
X54538999Y-89782000I249999J0D01*
G01*
X55189001Y-89782000D01*
G75*
G02*
X55439000Y-90031999I0J-249999D01*
G01*
X55439000Y-92232001D01*
G75*
G02*
X55189001Y-92482000I-249999J0D01*
G01*
X54538999Y-92482000D01*
G75*
G02*
X54289000Y-92232001I0J249999D01*
G01*
G37*
%TD.AperFunction*%
%TD*%
D12*
%TO.N,Net-(C1-Pad2)*%
X60607000Y-98945000D02*
X59300000Y-97638000D01*
X62225000Y-98945000D02*
X60607000Y-98945000D01*
X56417000Y-97638000D02*
X56134000Y-97355000D01*
X59300000Y-97638000D02*
X56417000Y-97638000D01*
%TO.N,Net-(C1-Pad1)*%
X59300000Y-95849810D02*
X59300000Y-94688000D01*
X61125190Y-97675000D02*
X59300000Y-95849810D01*
X62225000Y-97675000D02*
X61125190Y-97675000D01*
X56336000Y-94688000D02*
X56074000Y-94950000D01*
X59300000Y-94688000D02*
X56336000Y-94688000D01*
%TO.N,Net-(C2-Pad1)*%
X62225000Y-95135000D02*
X61350000Y-95135000D01*
X61350000Y-95135000D02*
X60975021Y-94760021D01*
X60975021Y-94760021D02*
X60975021Y-92417021D01*
X60975021Y-92417021D02*
X59690000Y-91132000D01*
%TO.N,Net-(C2-Pad2)*%
X59207200Y-92807010D02*
X58415010Y-92807010D01*
X58415010Y-92807010D02*
X56740000Y-91132000D01*
X60525010Y-94124820D02*
X59207200Y-92807010D01*
X62225000Y-96405000D02*
X61350000Y-96405000D01*
X61350000Y-96405000D02*
X60525010Y-95580010D01*
X60525010Y-95580010D02*
X60525010Y-94124820D01*
%TO.N,/E+*%
X67375000Y-93865000D02*
X66500000Y-93865000D01*
X47650000Y-91132000D02*
X47117000Y-90599000D01*
X51914000Y-91132000D02*
X47650000Y-91132000D01*
X67375000Y-97675000D02*
X71525000Y-97675000D01*
X71525000Y-97675000D02*
X73496000Y-95704000D01*
X67375000Y-92595000D02*
X67375000Y-93865000D01*
X73704000Y-95704000D02*
X75311000Y-95704000D01*
X73496000Y-95704000D02*
X73704000Y-95704000D01*
X71657000Y-93865000D02*
X73496000Y-95704000D01*
X70865000Y-93865000D02*
X71657000Y-93865000D01*
X67375000Y-93865000D02*
X70865000Y-93865000D01*
X51914000Y-91132000D02*
X53946000Y-89100000D01*
X61270000Y-89100000D02*
X61935000Y-89765000D01*
X53946000Y-89100000D02*
X61270000Y-89100000D01*
X62225000Y-90055000D02*
X61935000Y-89765000D01*
X62225000Y-90055000D02*
X63455000Y-90055000D01*
X65995000Y-92595000D02*
X66495000Y-92595000D01*
X63455000Y-90055000D02*
X65995000Y-92595000D01*
X67375000Y-92595000D02*
X66495000Y-92595000D01*
%TO.N,GND*%
X69972500Y-96405000D02*
X70358000Y-96019500D01*
X67375000Y-96405000D02*
X69972500Y-96405000D01*
%TO.N,/CLK*%
X71059000Y-91325000D02*
X67375000Y-91325000D01*
X73472000Y-91325000D02*
X75311000Y-93164000D01*
X67375000Y-91325000D02*
X73472000Y-91325000D01*
%TO.N,/DO*%
X74742000Y-90055000D02*
X75311000Y-90624000D01*
X67375000Y-90055000D02*
X74742000Y-90055000D01*
%TO.N,/E-*%
X48468010Y-99570010D02*
X47117000Y-98219000D01*
X67375000Y-98945000D02*
X67245000Y-98945000D01*
X67375000Y-98945000D02*
X65845000Y-98945000D01*
X65845000Y-98945000D02*
X65300000Y-98400000D01*
X65865000Y-95135000D02*
X67375000Y-95135000D01*
X65300000Y-95700000D02*
X65865000Y-95135000D01*
X64029990Y-99570010D02*
X65300000Y-98300000D01*
X63429990Y-99570010D02*
X64029990Y-99570010D01*
X65300000Y-98300000D02*
X65300000Y-95700000D01*
X65300000Y-98400000D02*
X65300000Y-98300000D01*
X63429990Y-99570010D02*
X48468010Y-99570010D01*
%TO.N,/A+*%
X48928000Y-94950000D02*
X47117000Y-93139000D01*
X53149000Y-94950000D02*
X48928000Y-94950000D01*
%TO.N,/A-*%
X48793000Y-97355000D02*
X47117000Y-95679000D01*
X53209000Y-97355000D02*
X48793000Y-97355000D01*
%TD*%
D13*
%TO.N,GND*%
X80648000Y-100648000D02*
X43352000Y-100648000D01*
X43352000Y-97369000D01*
X45938418Y-97369000D01*
X45938418Y-99069000D01*
X45944732Y-99133103D01*
X45963430Y-99194743D01*
X45993794Y-99251550D01*
X46034657Y-99301343D01*
X46084450Y-99342206D01*
X46141257Y-99372570D01*
X46202897Y-99391268D01*
X46267000Y-99397582D01*
X47656358Y-99397582D01*
X48132691Y-99873915D01*
X48146851Y-99891169D01*
X48215677Y-99947653D01*
X48282275Y-99983250D01*
X48294200Y-99989624D01*
X48379402Y-100015470D01*
X48468010Y-100024197D01*
X48490215Y-100022010D01*
X64007785Y-100022010D01*
X64029990Y-100024197D01*
X64052195Y-100022010D01*
X64118597Y-100015470D01*
X64203800Y-99989624D01*
X64282323Y-99947653D01*
X64351149Y-99891169D01*
X64365313Y-99873910D01*
X65250000Y-98989224D01*
X65509685Y-99248910D01*
X65523841Y-99266159D01*
X65592667Y-99322643D01*
X65671190Y-99364614D01*
X65736562Y-99384444D01*
X65756392Y-99390460D01*
X65844999Y-99399187D01*
X65867204Y-99397000D01*
X66281711Y-99397000D01*
X66311591Y-99433409D01*
X66384114Y-99492926D01*
X66466855Y-99537152D01*
X66556633Y-99564386D01*
X66650000Y-99573582D01*
X68100000Y-99573582D01*
X68193367Y-99564386D01*
X68283145Y-99537152D01*
X68339555Y-99507000D01*
X68844928Y-99507000D01*
X68857188Y-99631482D01*
X68893498Y-99751180D01*
X68952463Y-99861494D01*
X69031815Y-99958185D01*
X69128506Y-100037537D01*
X69238820Y-100096502D01*
X69358518Y-100132812D01*
X69483000Y-100145072D01*
X70072250Y-100142000D01*
X70231000Y-99983250D01*
X70231000Y-99071500D01*
X70485000Y-99071500D01*
X70485000Y-99983250D01*
X70643750Y-100142000D01*
X71233000Y-100145072D01*
X71357482Y-100132812D01*
X71477180Y-100096502D01*
X71587494Y-100037537D01*
X71684185Y-99958185D01*
X71763537Y-99861494D01*
X71822502Y-99751180D01*
X71858812Y-99631482D01*
X71871072Y-99507000D01*
X71868000Y-99230250D01*
X71731750Y-99094000D01*
X73822928Y-99094000D01*
X73835188Y-99218482D01*
X73871498Y-99338180D01*
X73930463Y-99448494D01*
X74009815Y-99545185D01*
X74106506Y-99624537D01*
X74216820Y-99683502D01*
X74336518Y-99719812D01*
X74461000Y-99732072D01*
X75025250Y-99729000D01*
X75184000Y-99570250D01*
X75184000Y-98371000D01*
X75438000Y-98371000D01*
X75438000Y-99570250D01*
X75596750Y-99729000D01*
X76161000Y-99732072D01*
X76285482Y-99719812D01*
X76405180Y-99683502D01*
X76515494Y-99624537D01*
X76612185Y-99545185D01*
X76691537Y-99448494D01*
X76750502Y-99338180D01*
X76786812Y-99218482D01*
X76799072Y-99094000D01*
X76796000Y-98529750D01*
X76637250Y-98371000D01*
X75438000Y-98371000D01*
X75184000Y-98371000D01*
X73984750Y-98371000D01*
X73826000Y-98529750D01*
X73822928Y-99094000D01*
X71731750Y-99094000D01*
X71709250Y-99071500D01*
X70485000Y-99071500D01*
X70231000Y-99071500D01*
X69006750Y-99071500D01*
X68848000Y-99230250D01*
X68844928Y-99507000D01*
X68339555Y-99507000D01*
X68365886Y-99492926D01*
X68438409Y-99433409D01*
X68497926Y-99360886D01*
X68542152Y-99278145D01*
X68569386Y-99188367D01*
X68578582Y-99095000D01*
X68578582Y-98795000D01*
X68569386Y-98701633D01*
X68542152Y-98611855D01*
X68497926Y-98529114D01*
X68438409Y-98456591D01*
X68365886Y-98397074D01*
X68283145Y-98352848D01*
X68193367Y-98325614D01*
X68100000Y-98316418D01*
X66650000Y-98316418D01*
X66556633Y-98325614D01*
X66466855Y-98352848D01*
X66384114Y-98397074D01*
X66311591Y-98456591D01*
X66281711Y-98493000D01*
X66032224Y-98493000D01*
X65752000Y-98212776D01*
X65752000Y-95887223D01*
X66052224Y-95587000D01*
X66130230Y-95587000D01*
X66048815Y-95653815D01*
X65969463Y-95750506D01*
X65910498Y-95860820D01*
X65874188Y-95980518D01*
X65861928Y-96105000D01*
X65865000Y-96119250D01*
X66023750Y-96278000D01*
X67248000Y-96278000D01*
X67248000Y-96258000D01*
X67502000Y-96258000D01*
X67502000Y-96278000D01*
X67522000Y-96278000D01*
X67522000Y-96532000D01*
X67502000Y-96532000D01*
X67502000Y-96552000D01*
X67248000Y-96552000D01*
X67248000Y-96532000D01*
X66023750Y-96532000D01*
X65865000Y-96690750D01*
X65861928Y-96705000D01*
X65874188Y-96829482D01*
X65910498Y-96949180D01*
X65969463Y-97059494D01*
X66048815Y-97156185D01*
X66145506Y-97235537D01*
X66238194Y-97285081D01*
X66207848Y-97341855D01*
X66180614Y-97431633D01*
X66171418Y-97525000D01*
X66171418Y-97825000D01*
X66180614Y-97918367D01*
X66207848Y-98008145D01*
X66252074Y-98090886D01*
X66311591Y-98163409D01*
X66384114Y-98222926D01*
X66466855Y-98267152D01*
X66556633Y-98294386D01*
X66650000Y-98303582D01*
X68100000Y-98303582D01*
X68193367Y-98294386D01*
X68283145Y-98267152D01*
X68365886Y-98222926D01*
X68438409Y-98163409D01*
X68468289Y-98127000D01*
X68899282Y-98127000D01*
X68893498Y-98137820D01*
X68857188Y-98257518D01*
X68844928Y-98382000D01*
X68848000Y-98658750D01*
X69006750Y-98817500D01*
X70231000Y-98817500D01*
X70231000Y-98797500D01*
X70485000Y-98797500D01*
X70485000Y-98817500D01*
X71709250Y-98817500D01*
X71868000Y-98658750D01*
X71871072Y-98382000D01*
X71858812Y-98257518D01*
X71822502Y-98137820D01*
X71777053Y-98052793D01*
X71777333Y-98052643D01*
X71846159Y-97996159D01*
X71860323Y-97978900D01*
X73683224Y-96156000D01*
X74224249Y-96156000D01*
X74267956Y-96261519D01*
X74396764Y-96454294D01*
X74560706Y-96618236D01*
X74753481Y-96747044D01*
X74779110Y-96757660D01*
X74461000Y-96755928D01*
X74336518Y-96768188D01*
X74216820Y-96804498D01*
X74106506Y-96863463D01*
X74009815Y-96942815D01*
X73930463Y-97039506D01*
X73871498Y-97149820D01*
X73835188Y-97269518D01*
X73822928Y-97394000D01*
X73826000Y-97958250D01*
X73984750Y-98117000D01*
X75184000Y-98117000D01*
X75184000Y-98097000D01*
X75438000Y-98097000D01*
X75438000Y-98117000D01*
X76637250Y-98117000D01*
X76796000Y-97958250D01*
X76799072Y-97394000D01*
X76786812Y-97269518D01*
X76750502Y-97149820D01*
X76691537Y-97039506D01*
X76612185Y-96942815D01*
X76515494Y-96863463D01*
X76405180Y-96804498D01*
X76285482Y-96768188D01*
X76161000Y-96755928D01*
X75842890Y-96757660D01*
X75868519Y-96747044D01*
X76061294Y-96618236D01*
X76225236Y-96454294D01*
X76354044Y-96261519D01*
X76442769Y-96047318D01*
X76488000Y-95819924D01*
X76488000Y-95588076D01*
X76442769Y-95360682D01*
X76354044Y-95146481D01*
X76225236Y-94953706D01*
X76061294Y-94789764D01*
X75868519Y-94660956D01*
X75654318Y-94572231D01*
X75426924Y-94527000D01*
X75195076Y-94527000D01*
X74967682Y-94572231D01*
X74753481Y-94660956D01*
X74560706Y-94789764D01*
X74396764Y-94953706D01*
X74267956Y-95146481D01*
X74224249Y-95252000D01*
X73683224Y-95252000D01*
X71992323Y-93561100D01*
X71978159Y-93543841D01*
X71909333Y-93487357D01*
X71830810Y-93445386D01*
X71745607Y-93419540D01*
X71679205Y-93413000D01*
X71657000Y-93410813D01*
X71634795Y-93413000D01*
X68468289Y-93413000D01*
X68438409Y-93376591D01*
X68365886Y-93317074D01*
X68283145Y-93272848D01*
X68193367Y-93245614D01*
X68100000Y-93236418D01*
X67827000Y-93236418D01*
X67827000Y-93223582D01*
X68100000Y-93223582D01*
X68193367Y-93214386D01*
X68283145Y-93187152D01*
X68365886Y-93142926D01*
X68438409Y-93083409D01*
X68497926Y-93010886D01*
X68542152Y-92928145D01*
X68569386Y-92838367D01*
X68578582Y-92745000D01*
X68578582Y-92445000D01*
X68569386Y-92351633D01*
X68542152Y-92261855D01*
X68497926Y-92179114D01*
X68438409Y-92106591D01*
X68365886Y-92047074D01*
X68283145Y-92002848D01*
X68193367Y-91975614D01*
X68100000Y-91966418D01*
X66650000Y-91966418D01*
X66556633Y-91975614D01*
X66466855Y-92002848D01*
X66384114Y-92047074D01*
X66311591Y-92106591D01*
X66281711Y-92143000D01*
X66182225Y-92143000D01*
X65214225Y-91175000D01*
X66171418Y-91175000D01*
X66171418Y-91475000D01*
X66180614Y-91568367D01*
X66207848Y-91658145D01*
X66252074Y-91740886D01*
X66311591Y-91813409D01*
X66384114Y-91872926D01*
X66466855Y-91917152D01*
X66556633Y-91944386D01*
X66650000Y-91953582D01*
X68100000Y-91953582D01*
X68193367Y-91944386D01*
X68283145Y-91917152D01*
X68365886Y-91872926D01*
X68438409Y-91813409D01*
X68468289Y-91777000D01*
X73284777Y-91777000D01*
X74222939Y-92715162D01*
X74179231Y-92820682D01*
X74134000Y-93048076D01*
X74134000Y-93279924D01*
X74179231Y-93507318D01*
X74267956Y-93721519D01*
X74396764Y-93914294D01*
X74560706Y-94078236D01*
X74753481Y-94207044D01*
X74967682Y-94295769D01*
X75195076Y-94341000D01*
X75426924Y-94341000D01*
X75654318Y-94295769D01*
X75868519Y-94207044D01*
X76061294Y-94078236D01*
X76225236Y-93914294D01*
X76354044Y-93721519D01*
X76442769Y-93507318D01*
X76488000Y-93279924D01*
X76488000Y-93048076D01*
X76442769Y-92820682D01*
X76354044Y-92606481D01*
X76225236Y-92413706D01*
X76061294Y-92249764D01*
X75868519Y-92120956D01*
X75654318Y-92032231D01*
X75426924Y-91987000D01*
X75195076Y-91987000D01*
X74967682Y-92032231D01*
X74862162Y-92075939D01*
X73807323Y-91021100D01*
X73793159Y-91003841D01*
X73724333Y-90947357D01*
X73645810Y-90905386D01*
X73560607Y-90879540D01*
X73494205Y-90873000D01*
X73472000Y-90870813D01*
X73449795Y-90873000D01*
X68468289Y-90873000D01*
X68438409Y-90836591D01*
X68365886Y-90777074D01*
X68283145Y-90732848D01*
X68193367Y-90705614D01*
X68100000Y-90696418D01*
X66650000Y-90696418D01*
X66556633Y-90705614D01*
X66466855Y-90732848D01*
X66384114Y-90777074D01*
X66311591Y-90836591D01*
X66252074Y-90909114D01*
X66207848Y-90991855D01*
X66180614Y-91081633D01*
X66171418Y-91175000D01*
X65214225Y-91175000D01*
X63944224Y-89905000D01*
X66171418Y-89905000D01*
X66171418Y-90205000D01*
X66180614Y-90298367D01*
X66207848Y-90388145D01*
X66252074Y-90470886D01*
X66311591Y-90543409D01*
X66384114Y-90602926D01*
X66466855Y-90647152D01*
X66556633Y-90674386D01*
X66650000Y-90683582D01*
X68100000Y-90683582D01*
X68193367Y-90674386D01*
X68283145Y-90647152D01*
X68365886Y-90602926D01*
X68438409Y-90543409D01*
X68468289Y-90507000D01*
X74134214Y-90507000D01*
X74134000Y-90508076D01*
X74134000Y-90739924D01*
X74179231Y-90967318D01*
X74267956Y-91181519D01*
X74396764Y-91374294D01*
X74560706Y-91538236D01*
X74753481Y-91667044D01*
X74967682Y-91755769D01*
X75195076Y-91801000D01*
X75426924Y-91801000D01*
X75654318Y-91755769D01*
X75868519Y-91667044D01*
X76061294Y-91538236D01*
X76225236Y-91374294D01*
X76354044Y-91181519D01*
X76442769Y-90967318D01*
X76488000Y-90739924D01*
X76488000Y-90508076D01*
X76442769Y-90280682D01*
X76354044Y-90066481D01*
X76225236Y-89873706D01*
X76061294Y-89709764D01*
X75868519Y-89580956D01*
X75654318Y-89492231D01*
X75426924Y-89447000D01*
X75195076Y-89447000D01*
X74967682Y-89492231D01*
X74753481Y-89580956D01*
X74720610Y-89602920D01*
X74719795Y-89603000D01*
X68468289Y-89603000D01*
X68438409Y-89566591D01*
X68365886Y-89507074D01*
X68283145Y-89462848D01*
X68193367Y-89435614D01*
X68100000Y-89426418D01*
X66650000Y-89426418D01*
X66556633Y-89435614D01*
X66466855Y-89462848D01*
X66384114Y-89507074D01*
X66311591Y-89566591D01*
X66252074Y-89639114D01*
X66207848Y-89721855D01*
X66180614Y-89811633D01*
X66171418Y-89905000D01*
X63944224Y-89905000D01*
X63790323Y-89751100D01*
X63776159Y-89733841D01*
X63707333Y-89677357D01*
X63628810Y-89635386D01*
X63543607Y-89609540D01*
X63477205Y-89603000D01*
X63455000Y-89600813D01*
X63432795Y-89603000D01*
X63318289Y-89603000D01*
X63288409Y-89566591D01*
X63215886Y-89507074D01*
X63133145Y-89462848D01*
X63043367Y-89435614D01*
X62950000Y-89426418D01*
X62235642Y-89426418D01*
X61605323Y-88796100D01*
X61591159Y-88778841D01*
X61522333Y-88722357D01*
X61443810Y-88680386D01*
X61358607Y-88654540D01*
X61292205Y-88648000D01*
X61270000Y-88645813D01*
X61247795Y-88648000D01*
X53968205Y-88648000D01*
X53946000Y-88645813D01*
X53857392Y-88654540D01*
X53772190Y-88680386D01*
X53693667Y-88722357D01*
X53624841Y-88778841D01*
X53610681Y-88796095D01*
X52709322Y-89697455D01*
X52648120Y-89622880D01*
X52560443Y-89550926D01*
X52460414Y-89497460D01*
X52351877Y-89464535D01*
X52239001Y-89453418D01*
X51588999Y-89453418D01*
X51476123Y-89464535D01*
X51367586Y-89497460D01*
X51267557Y-89550926D01*
X51179880Y-89622880D01*
X51107926Y-89710557D01*
X51054460Y-89810586D01*
X51021535Y-89919123D01*
X51010418Y-90031999D01*
X51010418Y-90680000D01*
X48294000Y-90680000D01*
X48294000Y-90483076D01*
X48248769Y-90255682D01*
X48160044Y-90041481D01*
X48031236Y-89848706D01*
X47867294Y-89684764D01*
X47674519Y-89555956D01*
X47460318Y-89467231D01*
X47232924Y-89422000D01*
X47001076Y-89422000D01*
X46773682Y-89467231D01*
X46559481Y-89555956D01*
X46366706Y-89684764D01*
X46202764Y-89848706D01*
X46073956Y-90041481D01*
X45985231Y-90255682D01*
X45940000Y-90483076D01*
X45940000Y-90714924D01*
X45985231Y-90942318D01*
X46073956Y-91156519D01*
X46202764Y-91349294D01*
X46366706Y-91513236D01*
X46559481Y-91642044D01*
X46773682Y-91730769D01*
X47001076Y-91776000D01*
X47232924Y-91776000D01*
X47460318Y-91730769D01*
X47674519Y-91642044D01*
X47761388Y-91584000D01*
X51010418Y-91584000D01*
X51010418Y-92232001D01*
X51021535Y-92344877D01*
X51054460Y-92453414D01*
X51107926Y-92553443D01*
X51179880Y-92641120D01*
X51267557Y-92713074D01*
X51367586Y-92766540D01*
X51476123Y-92799465D01*
X51588999Y-92810582D01*
X52239001Y-92810582D01*
X52351877Y-92799465D01*
X52460414Y-92766540D01*
X52560443Y-92713074D01*
X52648120Y-92641120D01*
X52720074Y-92553443D01*
X52758260Y-92482000D01*
X53650928Y-92482000D01*
X53663188Y-92606482D01*
X53699498Y-92726180D01*
X53758463Y-92836494D01*
X53837815Y-92933185D01*
X53934506Y-93012537D01*
X54044820Y-93071502D01*
X54164518Y-93107812D01*
X54289000Y-93120072D01*
X54578250Y-93117000D01*
X54737000Y-92958250D01*
X54737000Y-91259000D01*
X53812750Y-91259000D01*
X53654000Y-91417750D01*
X53650928Y-92482000D01*
X52758260Y-92482000D01*
X52773540Y-92453414D01*
X52806465Y-92344877D01*
X52817582Y-92232001D01*
X52817582Y-90867641D01*
X53651654Y-90033570D01*
X53654000Y-90846250D01*
X53812750Y-91005000D01*
X54737000Y-91005000D01*
X54737000Y-90985000D01*
X54991000Y-90985000D01*
X54991000Y-91005000D01*
X55011000Y-91005000D01*
X55011000Y-91259000D01*
X54991000Y-91259000D01*
X54991000Y-92958250D01*
X55149750Y-93117000D01*
X55439000Y-93120072D01*
X55563482Y-93107812D01*
X55683180Y-93071502D01*
X55793494Y-93012537D01*
X55890185Y-92933185D01*
X55969537Y-92836494D01*
X56028502Y-92726180D01*
X56044652Y-92672939D01*
X56093557Y-92713074D01*
X56193586Y-92766540D01*
X56302123Y-92799465D01*
X56414999Y-92810582D01*
X57065001Y-92810582D01*
X57177877Y-92799465D01*
X57286414Y-92766540D01*
X57386443Y-92713074D01*
X57474120Y-92641120D01*
X57535321Y-92566545D01*
X58079691Y-93110915D01*
X58093851Y-93128169D01*
X58162677Y-93184653D01*
X58211045Y-93210506D01*
X58241200Y-93226624D01*
X58326402Y-93252470D01*
X58415010Y-93261197D01*
X58437215Y-93259010D01*
X59019977Y-93259010D01*
X59545385Y-93784418D01*
X58649999Y-93784418D01*
X58537123Y-93795535D01*
X58428586Y-93828460D01*
X58328557Y-93881926D01*
X58240880Y-93953880D01*
X58168926Y-94041557D01*
X58115460Y-94141586D01*
X58086819Y-94236000D01*
X56956317Y-94236000D01*
X56953965Y-94212123D01*
X56921040Y-94103585D01*
X56867574Y-94003556D01*
X56795620Y-93915880D01*
X56707944Y-93843926D01*
X56607915Y-93790460D01*
X56499377Y-93757535D01*
X56386502Y-93746418D01*
X55761498Y-93746418D01*
X55648623Y-93757535D01*
X55540085Y-93790460D01*
X55440056Y-93843926D01*
X55352380Y-93915880D01*
X55280426Y-94003556D01*
X55226960Y-94103585D01*
X55194035Y-94212123D01*
X55182918Y-94324998D01*
X55182918Y-95575002D01*
X55194035Y-95687877D01*
X55226960Y-95796415D01*
X55280426Y-95896444D01*
X55352380Y-95984120D01*
X55440056Y-96056074D01*
X55540085Y-96109540D01*
X55648623Y-96142465D01*
X55761498Y-96153582D01*
X55799526Y-96153582D01*
X55708623Y-96162535D01*
X55600085Y-96195460D01*
X55500056Y-96248926D01*
X55412380Y-96320880D01*
X55340426Y-96408556D01*
X55286960Y-96508585D01*
X55254035Y-96617123D01*
X55242918Y-96729998D01*
X55242918Y-97980002D01*
X55254035Y-98092877D01*
X55286960Y-98201415D01*
X55340426Y-98301444D01*
X55412380Y-98389120D01*
X55500056Y-98461074D01*
X55600085Y-98514540D01*
X55708623Y-98547465D01*
X55821498Y-98558582D01*
X56446502Y-98558582D01*
X56559377Y-98547465D01*
X56667915Y-98514540D01*
X56767944Y-98461074D01*
X56855620Y-98389120D01*
X56927574Y-98301444D01*
X56981040Y-98201415D01*
X57013965Y-98092877D01*
X57014248Y-98090000D01*
X58086819Y-98090000D01*
X58115460Y-98184414D01*
X58168926Y-98284443D01*
X58240880Y-98372120D01*
X58328557Y-98444074D01*
X58428586Y-98497540D01*
X58537123Y-98530465D01*
X58649999Y-98541582D01*
X59564358Y-98541582D01*
X60140785Y-99118010D01*
X48655234Y-99118010D01*
X48295582Y-98758358D01*
X48295582Y-97496806D01*
X48457681Y-97658905D01*
X48471841Y-97676159D01*
X48540667Y-97732643D01*
X48617181Y-97773540D01*
X48619190Y-97774614D01*
X48704392Y-97800460D01*
X48793000Y-97809187D01*
X48815205Y-97807000D01*
X52317918Y-97807000D01*
X52317918Y-97980002D01*
X52329035Y-98092877D01*
X52361960Y-98201415D01*
X52415426Y-98301444D01*
X52487380Y-98389120D01*
X52575056Y-98461074D01*
X52675085Y-98514540D01*
X52783623Y-98547465D01*
X52896498Y-98558582D01*
X53521502Y-98558582D01*
X53634377Y-98547465D01*
X53742915Y-98514540D01*
X53842944Y-98461074D01*
X53930620Y-98389120D01*
X54002574Y-98301444D01*
X54056040Y-98201415D01*
X54088965Y-98092877D01*
X54100082Y-97980002D01*
X54100082Y-96729998D01*
X54088965Y-96617123D01*
X54056040Y-96508585D01*
X54002574Y-96408556D01*
X53930620Y-96320880D01*
X53842944Y-96248926D01*
X53742915Y-96195460D01*
X53634377Y-96162535D01*
X53521502Y-96151418D01*
X53483474Y-96151418D01*
X53574377Y-96142465D01*
X53682915Y-96109540D01*
X53782944Y-96056074D01*
X53870620Y-95984120D01*
X53942574Y-95896444D01*
X53996040Y-95796415D01*
X54028965Y-95687877D01*
X54040082Y-95575002D01*
X54040082Y-94324998D01*
X54028965Y-94212123D01*
X53996040Y-94103585D01*
X53942574Y-94003556D01*
X53870620Y-93915880D01*
X53782944Y-93843926D01*
X53682915Y-93790460D01*
X53574377Y-93757535D01*
X53461502Y-93746418D01*
X52836498Y-93746418D01*
X52723623Y-93757535D01*
X52615085Y-93790460D01*
X52515056Y-93843926D01*
X52427380Y-93915880D01*
X52355426Y-94003556D01*
X52301960Y-94103585D01*
X52269035Y-94212123D01*
X52257918Y-94324998D01*
X52257918Y-94498000D01*
X49115224Y-94498000D01*
X48205061Y-93587838D01*
X48248769Y-93482318D01*
X48294000Y-93254924D01*
X48294000Y-93023076D01*
X48248769Y-92795682D01*
X48160044Y-92581481D01*
X48031236Y-92388706D01*
X47867294Y-92224764D01*
X47674519Y-92095956D01*
X47460318Y-92007231D01*
X47232924Y-91962000D01*
X47001076Y-91962000D01*
X46773682Y-92007231D01*
X46559481Y-92095956D01*
X46366706Y-92224764D01*
X46202764Y-92388706D01*
X46073956Y-92581481D01*
X45985231Y-92795682D01*
X45940000Y-93023076D01*
X45940000Y-93254924D01*
X45985231Y-93482318D01*
X46073956Y-93696519D01*
X46202764Y-93889294D01*
X46366706Y-94053236D01*
X46559481Y-94182044D01*
X46773682Y-94270769D01*
X47001076Y-94316000D01*
X47232924Y-94316000D01*
X47460318Y-94270769D01*
X47565838Y-94227061D01*
X48592681Y-95253905D01*
X48606841Y-95271159D01*
X48675667Y-95327643D01*
X48705684Y-95343687D01*
X48754190Y-95369614D01*
X48839392Y-95395460D01*
X48928000Y-95404187D01*
X48950205Y-95402000D01*
X52257918Y-95402000D01*
X52257918Y-95575002D01*
X52269035Y-95687877D01*
X52301960Y-95796415D01*
X52355426Y-95896444D01*
X52427380Y-95984120D01*
X52515056Y-96056074D01*
X52615085Y-96109540D01*
X52723623Y-96142465D01*
X52836498Y-96153582D01*
X52874526Y-96153582D01*
X52783623Y-96162535D01*
X52675085Y-96195460D01*
X52575056Y-96248926D01*
X52487380Y-96320880D01*
X52415426Y-96408556D01*
X52361960Y-96508585D01*
X52329035Y-96617123D01*
X52317918Y-96729998D01*
X52317918Y-96903000D01*
X48980224Y-96903000D01*
X48205061Y-96127838D01*
X48248769Y-96022318D01*
X48294000Y-95794924D01*
X48294000Y-95563076D01*
X48248769Y-95335682D01*
X48160044Y-95121481D01*
X48031236Y-94928706D01*
X47867294Y-94764764D01*
X47674519Y-94635956D01*
X47460318Y-94547231D01*
X47232924Y-94502000D01*
X47001076Y-94502000D01*
X46773682Y-94547231D01*
X46559481Y-94635956D01*
X46366706Y-94764764D01*
X46202764Y-94928706D01*
X46073956Y-95121481D01*
X45985231Y-95335682D01*
X45940000Y-95563076D01*
X45940000Y-95794924D01*
X45985231Y-96022318D01*
X46073956Y-96236519D01*
X46202764Y-96429294D01*
X46366706Y-96593236D01*
X46559481Y-96722044D01*
X46773682Y-96810769D01*
X47001076Y-96856000D01*
X47232924Y-96856000D01*
X47460318Y-96810769D01*
X47565838Y-96767061D01*
X47839194Y-97040418D01*
X46267000Y-97040418D01*
X46202897Y-97046732D01*
X46141257Y-97065430D01*
X46084450Y-97095794D01*
X46034657Y-97136657D01*
X45993794Y-97186450D01*
X45963430Y-97243257D01*
X45944732Y-97304897D01*
X45938418Y-97369000D01*
X43352000Y-97369000D01*
X43352000Y-88352000D01*
X80648001Y-88352000D01*
X80648000Y-100648000D01*
%TA.AperFunction,Conductor*%
D14*
G36*
X80648000Y-100648000D02*
G01*
X43352000Y-100648000D01*
X43352000Y-97369000D01*
X45938418Y-97369000D01*
X45938418Y-99069000D01*
X45944732Y-99133103D01*
X45963430Y-99194743D01*
X45993794Y-99251550D01*
X46034657Y-99301343D01*
X46084450Y-99342206D01*
X46141257Y-99372570D01*
X46202897Y-99391268D01*
X46267000Y-99397582D01*
X47656358Y-99397582D01*
X48132691Y-99873915D01*
X48146851Y-99891169D01*
X48215677Y-99947653D01*
X48282275Y-99983250D01*
X48294200Y-99989624D01*
X48379402Y-100015470D01*
X48468010Y-100024197D01*
X48490215Y-100022010D01*
X64007785Y-100022010D01*
X64029990Y-100024197D01*
X64052195Y-100022010D01*
X64118597Y-100015470D01*
X64203800Y-99989624D01*
X64282323Y-99947653D01*
X64351149Y-99891169D01*
X64365313Y-99873910D01*
X65250000Y-98989224D01*
X65509685Y-99248910D01*
X65523841Y-99266159D01*
X65592667Y-99322643D01*
X65671190Y-99364614D01*
X65736562Y-99384444D01*
X65756392Y-99390460D01*
X65844999Y-99399187D01*
X65867204Y-99397000D01*
X66281711Y-99397000D01*
X66311591Y-99433409D01*
X66384114Y-99492926D01*
X66466855Y-99537152D01*
X66556633Y-99564386D01*
X66650000Y-99573582D01*
X68100000Y-99573582D01*
X68193367Y-99564386D01*
X68283145Y-99537152D01*
X68339555Y-99507000D01*
X68844928Y-99507000D01*
X68857188Y-99631482D01*
X68893498Y-99751180D01*
X68952463Y-99861494D01*
X69031815Y-99958185D01*
X69128506Y-100037537D01*
X69238820Y-100096502D01*
X69358518Y-100132812D01*
X69483000Y-100145072D01*
X70072250Y-100142000D01*
X70231000Y-99983250D01*
X70231000Y-99071500D01*
X70485000Y-99071500D01*
X70485000Y-99983250D01*
X70643750Y-100142000D01*
X71233000Y-100145072D01*
X71357482Y-100132812D01*
X71477180Y-100096502D01*
X71587494Y-100037537D01*
X71684185Y-99958185D01*
X71763537Y-99861494D01*
X71822502Y-99751180D01*
X71858812Y-99631482D01*
X71871072Y-99507000D01*
X71868000Y-99230250D01*
X71731750Y-99094000D01*
X73822928Y-99094000D01*
X73835188Y-99218482D01*
X73871498Y-99338180D01*
X73930463Y-99448494D01*
X74009815Y-99545185D01*
X74106506Y-99624537D01*
X74216820Y-99683502D01*
X74336518Y-99719812D01*
X74461000Y-99732072D01*
X75025250Y-99729000D01*
X75184000Y-99570250D01*
X75184000Y-98371000D01*
X75438000Y-98371000D01*
X75438000Y-99570250D01*
X75596750Y-99729000D01*
X76161000Y-99732072D01*
X76285482Y-99719812D01*
X76405180Y-99683502D01*
X76515494Y-99624537D01*
X76612185Y-99545185D01*
X76691537Y-99448494D01*
X76750502Y-99338180D01*
X76786812Y-99218482D01*
X76799072Y-99094000D01*
X76796000Y-98529750D01*
X76637250Y-98371000D01*
X75438000Y-98371000D01*
X75184000Y-98371000D01*
X73984750Y-98371000D01*
X73826000Y-98529750D01*
X73822928Y-99094000D01*
X71731750Y-99094000D01*
X71709250Y-99071500D01*
X70485000Y-99071500D01*
X70231000Y-99071500D01*
X69006750Y-99071500D01*
X68848000Y-99230250D01*
X68844928Y-99507000D01*
X68339555Y-99507000D01*
X68365886Y-99492926D01*
X68438409Y-99433409D01*
X68497926Y-99360886D01*
X68542152Y-99278145D01*
X68569386Y-99188367D01*
X68578582Y-99095000D01*
X68578582Y-98795000D01*
X68569386Y-98701633D01*
X68542152Y-98611855D01*
X68497926Y-98529114D01*
X68438409Y-98456591D01*
X68365886Y-98397074D01*
X68283145Y-98352848D01*
X68193367Y-98325614D01*
X68100000Y-98316418D01*
X66650000Y-98316418D01*
X66556633Y-98325614D01*
X66466855Y-98352848D01*
X66384114Y-98397074D01*
X66311591Y-98456591D01*
X66281711Y-98493000D01*
X66032224Y-98493000D01*
X65752000Y-98212776D01*
X65752000Y-95887223D01*
X66052224Y-95587000D01*
X66130230Y-95587000D01*
X66048815Y-95653815D01*
X65969463Y-95750506D01*
X65910498Y-95860820D01*
X65874188Y-95980518D01*
X65861928Y-96105000D01*
X65865000Y-96119250D01*
X66023750Y-96278000D01*
X67248000Y-96278000D01*
X67248000Y-96258000D01*
X67502000Y-96258000D01*
X67502000Y-96278000D01*
X67522000Y-96278000D01*
X67522000Y-96532000D01*
X67502000Y-96532000D01*
X67502000Y-96552000D01*
X67248000Y-96552000D01*
X67248000Y-96532000D01*
X66023750Y-96532000D01*
X65865000Y-96690750D01*
X65861928Y-96705000D01*
X65874188Y-96829482D01*
X65910498Y-96949180D01*
X65969463Y-97059494D01*
X66048815Y-97156185D01*
X66145506Y-97235537D01*
X66238194Y-97285081D01*
X66207848Y-97341855D01*
X66180614Y-97431633D01*
X66171418Y-97525000D01*
X66171418Y-97825000D01*
X66180614Y-97918367D01*
X66207848Y-98008145D01*
X66252074Y-98090886D01*
X66311591Y-98163409D01*
X66384114Y-98222926D01*
X66466855Y-98267152D01*
X66556633Y-98294386D01*
X66650000Y-98303582D01*
X68100000Y-98303582D01*
X68193367Y-98294386D01*
X68283145Y-98267152D01*
X68365886Y-98222926D01*
X68438409Y-98163409D01*
X68468289Y-98127000D01*
X68899282Y-98127000D01*
X68893498Y-98137820D01*
X68857188Y-98257518D01*
X68844928Y-98382000D01*
X68848000Y-98658750D01*
X69006750Y-98817500D01*
X70231000Y-98817500D01*
X70231000Y-98797500D01*
X70485000Y-98797500D01*
X70485000Y-98817500D01*
X71709250Y-98817500D01*
X71868000Y-98658750D01*
X71871072Y-98382000D01*
X71858812Y-98257518D01*
X71822502Y-98137820D01*
X71777053Y-98052793D01*
X71777333Y-98052643D01*
X71846159Y-97996159D01*
X71860323Y-97978900D01*
X73683224Y-96156000D01*
X74224249Y-96156000D01*
X74267956Y-96261519D01*
X74396764Y-96454294D01*
X74560706Y-96618236D01*
X74753481Y-96747044D01*
X74779110Y-96757660D01*
X74461000Y-96755928D01*
X74336518Y-96768188D01*
X74216820Y-96804498D01*
X74106506Y-96863463D01*
X74009815Y-96942815D01*
X73930463Y-97039506D01*
X73871498Y-97149820D01*
X73835188Y-97269518D01*
X73822928Y-97394000D01*
X73826000Y-97958250D01*
X73984750Y-98117000D01*
X75184000Y-98117000D01*
X75184000Y-98097000D01*
X75438000Y-98097000D01*
X75438000Y-98117000D01*
X76637250Y-98117000D01*
X76796000Y-97958250D01*
X76799072Y-97394000D01*
X76786812Y-97269518D01*
X76750502Y-97149820D01*
X76691537Y-97039506D01*
X76612185Y-96942815D01*
X76515494Y-96863463D01*
X76405180Y-96804498D01*
X76285482Y-96768188D01*
X76161000Y-96755928D01*
X75842890Y-96757660D01*
X75868519Y-96747044D01*
X76061294Y-96618236D01*
X76225236Y-96454294D01*
X76354044Y-96261519D01*
X76442769Y-96047318D01*
X76488000Y-95819924D01*
X76488000Y-95588076D01*
X76442769Y-95360682D01*
X76354044Y-95146481D01*
X76225236Y-94953706D01*
X76061294Y-94789764D01*
X75868519Y-94660956D01*
X75654318Y-94572231D01*
X75426924Y-94527000D01*
X75195076Y-94527000D01*
X74967682Y-94572231D01*
X74753481Y-94660956D01*
X74560706Y-94789764D01*
X74396764Y-94953706D01*
X74267956Y-95146481D01*
X74224249Y-95252000D01*
X73683224Y-95252000D01*
X71992323Y-93561100D01*
X71978159Y-93543841D01*
X71909333Y-93487357D01*
X71830810Y-93445386D01*
X71745607Y-93419540D01*
X71679205Y-93413000D01*
X71657000Y-93410813D01*
X71634795Y-93413000D01*
X68468289Y-93413000D01*
X68438409Y-93376591D01*
X68365886Y-93317074D01*
X68283145Y-93272848D01*
X68193367Y-93245614D01*
X68100000Y-93236418D01*
X67827000Y-93236418D01*
X67827000Y-93223582D01*
X68100000Y-93223582D01*
X68193367Y-93214386D01*
X68283145Y-93187152D01*
X68365886Y-93142926D01*
X68438409Y-93083409D01*
X68497926Y-93010886D01*
X68542152Y-92928145D01*
X68569386Y-92838367D01*
X68578582Y-92745000D01*
X68578582Y-92445000D01*
X68569386Y-92351633D01*
X68542152Y-92261855D01*
X68497926Y-92179114D01*
X68438409Y-92106591D01*
X68365886Y-92047074D01*
X68283145Y-92002848D01*
X68193367Y-91975614D01*
X68100000Y-91966418D01*
X66650000Y-91966418D01*
X66556633Y-91975614D01*
X66466855Y-92002848D01*
X66384114Y-92047074D01*
X66311591Y-92106591D01*
X66281711Y-92143000D01*
X66182225Y-92143000D01*
X65214225Y-91175000D01*
X66171418Y-91175000D01*
X66171418Y-91475000D01*
X66180614Y-91568367D01*
X66207848Y-91658145D01*
X66252074Y-91740886D01*
X66311591Y-91813409D01*
X66384114Y-91872926D01*
X66466855Y-91917152D01*
X66556633Y-91944386D01*
X66650000Y-91953582D01*
X68100000Y-91953582D01*
X68193367Y-91944386D01*
X68283145Y-91917152D01*
X68365886Y-91872926D01*
X68438409Y-91813409D01*
X68468289Y-91777000D01*
X73284777Y-91777000D01*
X74222939Y-92715162D01*
X74179231Y-92820682D01*
X74134000Y-93048076D01*
X74134000Y-93279924D01*
X74179231Y-93507318D01*
X74267956Y-93721519D01*
X74396764Y-93914294D01*
X74560706Y-94078236D01*
X74753481Y-94207044D01*
X74967682Y-94295769D01*
X75195076Y-94341000D01*
X75426924Y-94341000D01*
X75654318Y-94295769D01*
X75868519Y-94207044D01*
X76061294Y-94078236D01*
X76225236Y-93914294D01*
X76354044Y-93721519D01*
X76442769Y-93507318D01*
X76488000Y-93279924D01*
X76488000Y-93048076D01*
X76442769Y-92820682D01*
X76354044Y-92606481D01*
X76225236Y-92413706D01*
X76061294Y-92249764D01*
X75868519Y-92120956D01*
X75654318Y-92032231D01*
X75426924Y-91987000D01*
X75195076Y-91987000D01*
X74967682Y-92032231D01*
X74862162Y-92075939D01*
X73807323Y-91021100D01*
X73793159Y-91003841D01*
X73724333Y-90947357D01*
X73645810Y-90905386D01*
X73560607Y-90879540D01*
X73494205Y-90873000D01*
X73472000Y-90870813D01*
X73449795Y-90873000D01*
X68468289Y-90873000D01*
X68438409Y-90836591D01*
X68365886Y-90777074D01*
X68283145Y-90732848D01*
X68193367Y-90705614D01*
X68100000Y-90696418D01*
X66650000Y-90696418D01*
X66556633Y-90705614D01*
X66466855Y-90732848D01*
X66384114Y-90777074D01*
X66311591Y-90836591D01*
X66252074Y-90909114D01*
X66207848Y-90991855D01*
X66180614Y-91081633D01*
X66171418Y-91175000D01*
X65214225Y-91175000D01*
X63944224Y-89905000D01*
X66171418Y-89905000D01*
X66171418Y-90205000D01*
X66180614Y-90298367D01*
X66207848Y-90388145D01*
X66252074Y-90470886D01*
X66311591Y-90543409D01*
X66384114Y-90602926D01*
X66466855Y-90647152D01*
X66556633Y-90674386D01*
X66650000Y-90683582D01*
X68100000Y-90683582D01*
X68193367Y-90674386D01*
X68283145Y-90647152D01*
X68365886Y-90602926D01*
X68438409Y-90543409D01*
X68468289Y-90507000D01*
X74134214Y-90507000D01*
X74134000Y-90508076D01*
X74134000Y-90739924D01*
X74179231Y-90967318D01*
X74267956Y-91181519D01*
X74396764Y-91374294D01*
X74560706Y-91538236D01*
X74753481Y-91667044D01*
X74967682Y-91755769D01*
X75195076Y-91801000D01*
X75426924Y-91801000D01*
X75654318Y-91755769D01*
X75868519Y-91667044D01*
X76061294Y-91538236D01*
X76225236Y-91374294D01*
X76354044Y-91181519D01*
X76442769Y-90967318D01*
X76488000Y-90739924D01*
X76488000Y-90508076D01*
X76442769Y-90280682D01*
X76354044Y-90066481D01*
X76225236Y-89873706D01*
X76061294Y-89709764D01*
X75868519Y-89580956D01*
X75654318Y-89492231D01*
X75426924Y-89447000D01*
X75195076Y-89447000D01*
X74967682Y-89492231D01*
X74753481Y-89580956D01*
X74720610Y-89602920D01*
X74719795Y-89603000D01*
X68468289Y-89603000D01*
X68438409Y-89566591D01*
X68365886Y-89507074D01*
X68283145Y-89462848D01*
X68193367Y-89435614D01*
X68100000Y-89426418D01*
X66650000Y-89426418D01*
X66556633Y-89435614D01*
X66466855Y-89462848D01*
X66384114Y-89507074D01*
X66311591Y-89566591D01*
X66252074Y-89639114D01*
X66207848Y-89721855D01*
X66180614Y-89811633D01*
X66171418Y-89905000D01*
X63944224Y-89905000D01*
X63790323Y-89751100D01*
X63776159Y-89733841D01*
X63707333Y-89677357D01*
X63628810Y-89635386D01*
X63543607Y-89609540D01*
X63477205Y-89603000D01*
X63455000Y-89600813D01*
X63432795Y-89603000D01*
X63318289Y-89603000D01*
X63288409Y-89566591D01*
X63215886Y-89507074D01*
X63133145Y-89462848D01*
X63043367Y-89435614D01*
X62950000Y-89426418D01*
X62235642Y-89426418D01*
X61605323Y-88796100D01*
X61591159Y-88778841D01*
X61522333Y-88722357D01*
X61443810Y-88680386D01*
X61358607Y-88654540D01*
X61292205Y-88648000D01*
X61270000Y-88645813D01*
X61247795Y-88648000D01*
X53968205Y-88648000D01*
X53946000Y-88645813D01*
X53857392Y-88654540D01*
X53772190Y-88680386D01*
X53693667Y-88722357D01*
X53624841Y-88778841D01*
X53610681Y-88796095D01*
X52709322Y-89697455D01*
X52648120Y-89622880D01*
X52560443Y-89550926D01*
X52460414Y-89497460D01*
X52351877Y-89464535D01*
X52239001Y-89453418D01*
X51588999Y-89453418D01*
X51476123Y-89464535D01*
X51367586Y-89497460D01*
X51267557Y-89550926D01*
X51179880Y-89622880D01*
X51107926Y-89710557D01*
X51054460Y-89810586D01*
X51021535Y-89919123D01*
X51010418Y-90031999D01*
X51010418Y-90680000D01*
X48294000Y-90680000D01*
X48294000Y-90483076D01*
X48248769Y-90255682D01*
X48160044Y-90041481D01*
X48031236Y-89848706D01*
X47867294Y-89684764D01*
X47674519Y-89555956D01*
X47460318Y-89467231D01*
X47232924Y-89422000D01*
X47001076Y-89422000D01*
X46773682Y-89467231D01*
X46559481Y-89555956D01*
X46366706Y-89684764D01*
X46202764Y-89848706D01*
X46073956Y-90041481D01*
X45985231Y-90255682D01*
X45940000Y-90483076D01*
X45940000Y-90714924D01*
X45985231Y-90942318D01*
X46073956Y-91156519D01*
X46202764Y-91349294D01*
X46366706Y-91513236D01*
X46559481Y-91642044D01*
X46773682Y-91730769D01*
X47001076Y-91776000D01*
X47232924Y-91776000D01*
X47460318Y-91730769D01*
X47674519Y-91642044D01*
X47761388Y-91584000D01*
X51010418Y-91584000D01*
X51010418Y-92232001D01*
X51021535Y-92344877D01*
X51054460Y-92453414D01*
X51107926Y-92553443D01*
X51179880Y-92641120D01*
X51267557Y-92713074D01*
X51367586Y-92766540D01*
X51476123Y-92799465D01*
X51588999Y-92810582D01*
X52239001Y-92810582D01*
X52351877Y-92799465D01*
X52460414Y-92766540D01*
X52560443Y-92713074D01*
X52648120Y-92641120D01*
X52720074Y-92553443D01*
X52758260Y-92482000D01*
X53650928Y-92482000D01*
X53663188Y-92606482D01*
X53699498Y-92726180D01*
X53758463Y-92836494D01*
X53837815Y-92933185D01*
X53934506Y-93012537D01*
X54044820Y-93071502D01*
X54164518Y-93107812D01*
X54289000Y-93120072D01*
X54578250Y-93117000D01*
X54737000Y-92958250D01*
X54737000Y-91259000D01*
X53812750Y-91259000D01*
X53654000Y-91417750D01*
X53650928Y-92482000D01*
X52758260Y-92482000D01*
X52773540Y-92453414D01*
X52806465Y-92344877D01*
X52817582Y-92232001D01*
X52817582Y-90867641D01*
X53651654Y-90033570D01*
X53654000Y-90846250D01*
X53812750Y-91005000D01*
X54737000Y-91005000D01*
X54737000Y-90985000D01*
X54991000Y-90985000D01*
X54991000Y-91005000D01*
X55011000Y-91005000D01*
X55011000Y-91259000D01*
X54991000Y-91259000D01*
X54991000Y-92958250D01*
X55149750Y-93117000D01*
X55439000Y-93120072D01*
X55563482Y-93107812D01*
X55683180Y-93071502D01*
X55793494Y-93012537D01*
X55890185Y-92933185D01*
X55969537Y-92836494D01*
X56028502Y-92726180D01*
X56044652Y-92672939D01*
X56093557Y-92713074D01*
X56193586Y-92766540D01*
X56302123Y-92799465D01*
X56414999Y-92810582D01*
X57065001Y-92810582D01*
X57177877Y-92799465D01*
X57286414Y-92766540D01*
X57386443Y-92713074D01*
X57474120Y-92641120D01*
X57535321Y-92566545D01*
X58079691Y-93110915D01*
X58093851Y-93128169D01*
X58162677Y-93184653D01*
X58211045Y-93210506D01*
X58241200Y-93226624D01*
X58326402Y-93252470D01*
X58415010Y-93261197D01*
X58437215Y-93259010D01*
X59019977Y-93259010D01*
X59545385Y-93784418D01*
X58649999Y-93784418D01*
X58537123Y-93795535D01*
X58428586Y-93828460D01*
X58328557Y-93881926D01*
X58240880Y-93953880D01*
X58168926Y-94041557D01*
X58115460Y-94141586D01*
X58086819Y-94236000D01*
X56956317Y-94236000D01*
X56953965Y-94212123D01*
X56921040Y-94103585D01*
X56867574Y-94003556D01*
X56795620Y-93915880D01*
X56707944Y-93843926D01*
X56607915Y-93790460D01*
X56499377Y-93757535D01*
X56386502Y-93746418D01*
X55761498Y-93746418D01*
X55648623Y-93757535D01*
X55540085Y-93790460D01*
X55440056Y-93843926D01*
X55352380Y-93915880D01*
X55280426Y-94003556D01*
X55226960Y-94103585D01*
X55194035Y-94212123D01*
X55182918Y-94324998D01*
X55182918Y-95575002D01*
X55194035Y-95687877D01*
X55226960Y-95796415D01*
X55280426Y-95896444D01*
X55352380Y-95984120D01*
X55440056Y-96056074D01*
X55540085Y-96109540D01*
X55648623Y-96142465D01*
X55761498Y-96153582D01*
X55799526Y-96153582D01*
X55708623Y-96162535D01*
X55600085Y-96195460D01*
X55500056Y-96248926D01*
X55412380Y-96320880D01*
X55340426Y-96408556D01*
X55286960Y-96508585D01*
X55254035Y-96617123D01*
X55242918Y-96729998D01*
X55242918Y-97980002D01*
X55254035Y-98092877D01*
X55286960Y-98201415D01*
X55340426Y-98301444D01*
X55412380Y-98389120D01*
X55500056Y-98461074D01*
X55600085Y-98514540D01*
X55708623Y-98547465D01*
X55821498Y-98558582D01*
X56446502Y-98558582D01*
X56559377Y-98547465D01*
X56667915Y-98514540D01*
X56767944Y-98461074D01*
X56855620Y-98389120D01*
X56927574Y-98301444D01*
X56981040Y-98201415D01*
X57013965Y-98092877D01*
X57014248Y-98090000D01*
X58086819Y-98090000D01*
X58115460Y-98184414D01*
X58168926Y-98284443D01*
X58240880Y-98372120D01*
X58328557Y-98444074D01*
X58428586Y-98497540D01*
X58537123Y-98530465D01*
X58649999Y-98541582D01*
X59564358Y-98541582D01*
X60140785Y-99118010D01*
X48655234Y-99118010D01*
X48295582Y-98758358D01*
X48295582Y-97496806D01*
X48457681Y-97658905D01*
X48471841Y-97676159D01*
X48540667Y-97732643D01*
X48617181Y-97773540D01*
X48619190Y-97774614D01*
X48704392Y-97800460D01*
X48793000Y-97809187D01*
X48815205Y-97807000D01*
X52317918Y-97807000D01*
X52317918Y-97980002D01*
X52329035Y-98092877D01*
X52361960Y-98201415D01*
X52415426Y-98301444D01*
X52487380Y-98389120D01*
X52575056Y-98461074D01*
X52675085Y-98514540D01*
X52783623Y-98547465D01*
X52896498Y-98558582D01*
X53521502Y-98558582D01*
X53634377Y-98547465D01*
X53742915Y-98514540D01*
X53842944Y-98461074D01*
X53930620Y-98389120D01*
X54002574Y-98301444D01*
X54056040Y-98201415D01*
X54088965Y-98092877D01*
X54100082Y-97980002D01*
X54100082Y-96729998D01*
X54088965Y-96617123D01*
X54056040Y-96508585D01*
X54002574Y-96408556D01*
X53930620Y-96320880D01*
X53842944Y-96248926D01*
X53742915Y-96195460D01*
X53634377Y-96162535D01*
X53521502Y-96151418D01*
X53483474Y-96151418D01*
X53574377Y-96142465D01*
X53682915Y-96109540D01*
X53782944Y-96056074D01*
X53870620Y-95984120D01*
X53942574Y-95896444D01*
X53996040Y-95796415D01*
X54028965Y-95687877D01*
X54040082Y-95575002D01*
X54040082Y-94324998D01*
X54028965Y-94212123D01*
X53996040Y-94103585D01*
X53942574Y-94003556D01*
X53870620Y-93915880D01*
X53782944Y-93843926D01*
X53682915Y-93790460D01*
X53574377Y-93757535D01*
X53461502Y-93746418D01*
X52836498Y-93746418D01*
X52723623Y-93757535D01*
X52615085Y-93790460D01*
X52515056Y-93843926D01*
X52427380Y-93915880D01*
X52355426Y-94003556D01*
X52301960Y-94103585D01*
X52269035Y-94212123D01*
X52257918Y-94324998D01*
X52257918Y-94498000D01*
X49115224Y-94498000D01*
X48205061Y-93587838D01*
X48248769Y-93482318D01*
X48294000Y-93254924D01*
X48294000Y-93023076D01*
X48248769Y-92795682D01*
X48160044Y-92581481D01*
X48031236Y-92388706D01*
X47867294Y-92224764D01*
X47674519Y-92095956D01*
X47460318Y-92007231D01*
X47232924Y-91962000D01*
X47001076Y-91962000D01*
X46773682Y-92007231D01*
X46559481Y-92095956D01*
X46366706Y-92224764D01*
X46202764Y-92388706D01*
X46073956Y-92581481D01*
X45985231Y-92795682D01*
X45940000Y-93023076D01*
X45940000Y-93254924D01*
X45985231Y-93482318D01*
X46073956Y-93696519D01*
X46202764Y-93889294D01*
X46366706Y-94053236D01*
X46559481Y-94182044D01*
X46773682Y-94270769D01*
X47001076Y-94316000D01*
X47232924Y-94316000D01*
X47460318Y-94270769D01*
X47565838Y-94227061D01*
X48592681Y-95253905D01*
X48606841Y-95271159D01*
X48675667Y-95327643D01*
X48705684Y-95343687D01*
X48754190Y-95369614D01*
X48839392Y-95395460D01*
X48928000Y-95404187D01*
X48950205Y-95402000D01*
X52257918Y-95402000D01*
X52257918Y-95575002D01*
X52269035Y-95687877D01*
X52301960Y-95796415D01*
X52355426Y-95896444D01*
X52427380Y-95984120D01*
X52515056Y-96056074D01*
X52615085Y-96109540D01*
X52723623Y-96142465D01*
X52836498Y-96153582D01*
X52874526Y-96153582D01*
X52783623Y-96162535D01*
X52675085Y-96195460D01*
X52575056Y-96248926D01*
X52487380Y-96320880D01*
X52415426Y-96408556D01*
X52361960Y-96508585D01*
X52329035Y-96617123D01*
X52317918Y-96729998D01*
X52317918Y-96903000D01*
X48980224Y-96903000D01*
X48205061Y-96127838D01*
X48248769Y-96022318D01*
X48294000Y-95794924D01*
X48294000Y-95563076D01*
X48248769Y-95335682D01*
X48160044Y-95121481D01*
X48031236Y-94928706D01*
X47867294Y-94764764D01*
X47674519Y-94635956D01*
X47460318Y-94547231D01*
X47232924Y-94502000D01*
X47001076Y-94502000D01*
X46773682Y-94547231D01*
X46559481Y-94635956D01*
X46366706Y-94764764D01*
X46202764Y-94928706D01*
X46073956Y-95121481D01*
X45985231Y-95335682D01*
X45940000Y-95563076D01*
X45940000Y-95794924D01*
X45985231Y-96022318D01*
X46073956Y-96236519D01*
X46202764Y-96429294D01*
X46366706Y-96593236D01*
X46559481Y-96722044D01*
X46773682Y-96810769D01*
X47001076Y-96856000D01*
X47232924Y-96856000D01*
X47460318Y-96810769D01*
X47565838Y-96767061D01*
X47839194Y-97040418D01*
X46267000Y-97040418D01*
X46202897Y-97046732D01*
X46141257Y-97065430D01*
X46084450Y-97095794D01*
X46034657Y-97136657D01*
X45993794Y-97186450D01*
X45963430Y-97243257D01*
X45944732Y-97304897D01*
X45938418Y-97369000D01*
X43352000Y-97369000D01*
X43352000Y-88352000D01*
X80648001Y-88352000D01*
X80648000Y-100648000D01*
G37*
%TD.AperFunction*%
D13*
X61132642Y-89601866D02*
X61102074Y-89639114D01*
X61057848Y-89721855D01*
X61030614Y-89811633D01*
X61021418Y-89905000D01*
X61021418Y-90205000D01*
X61030614Y-90298367D01*
X61057848Y-90388145D01*
X61088194Y-90444919D01*
X60995506Y-90494463D01*
X60898815Y-90573815D01*
X60819463Y-90670506D01*
X60760498Y-90780820D01*
X60724188Y-90900518D01*
X60711928Y-91025000D01*
X60715000Y-91039250D01*
X60873750Y-91198000D01*
X62098000Y-91198000D01*
X62098000Y-91178000D01*
X62352000Y-91178000D01*
X62352000Y-91198000D01*
X63576250Y-91198000D01*
X63735000Y-91039250D01*
X63738072Y-91025000D01*
X63732860Y-90972084D01*
X65659686Y-92898911D01*
X65673841Y-92916159D01*
X65742667Y-92972643D01*
X65821190Y-93014614D01*
X65906393Y-93040460D01*
X65972795Y-93047000D01*
X65972796Y-93047000D01*
X65994999Y-93049187D01*
X66017202Y-93047000D01*
X66281711Y-93047000D01*
X66311591Y-93083409D01*
X66384114Y-93142926D01*
X66466855Y-93187152D01*
X66556633Y-93214386D01*
X66650000Y-93223582D01*
X66923000Y-93223582D01*
X66923001Y-93236418D01*
X66650000Y-93236418D01*
X66556633Y-93245614D01*
X66466855Y-93272848D01*
X66384114Y-93317074D01*
X66311591Y-93376591D01*
X66252074Y-93449114D01*
X66219103Y-93510799D01*
X66178841Y-93543841D01*
X66122357Y-93612667D01*
X66080386Y-93691190D01*
X66054540Y-93776393D01*
X66045813Y-93865000D01*
X66054540Y-93953607D01*
X66080386Y-94038810D01*
X66122357Y-94117333D01*
X66178841Y-94186159D01*
X66219103Y-94219201D01*
X66252074Y-94280886D01*
X66311591Y-94353409D01*
X66384114Y-94412926D01*
X66466855Y-94457152D01*
X66556633Y-94484386D01*
X66650000Y-94493582D01*
X68100000Y-94493582D01*
X68193367Y-94484386D01*
X68283145Y-94457152D01*
X68365886Y-94412926D01*
X68438409Y-94353409D01*
X68468289Y-94317000D01*
X71469777Y-94317000D01*
X72856776Y-95704000D01*
X71859306Y-96701471D01*
X71871072Y-96582000D01*
X71868000Y-96305250D01*
X71709250Y-96146500D01*
X70485000Y-96146500D01*
X70485000Y-97058250D01*
X70643750Y-97217000D01*
X71233000Y-97220072D01*
X71352471Y-97208305D01*
X71337777Y-97223000D01*
X68619770Y-97223000D01*
X68701185Y-97156185D01*
X68780537Y-97059494D01*
X68839502Y-96949180D01*
X68875812Y-96829482D01*
X68880392Y-96782976D01*
X68893498Y-96826180D01*
X68952463Y-96936494D01*
X69031815Y-97033185D01*
X69128506Y-97112537D01*
X69238820Y-97171502D01*
X69358518Y-97207812D01*
X69483000Y-97220072D01*
X70072250Y-97217000D01*
X70231000Y-97058250D01*
X70231000Y-96146500D01*
X70211000Y-96146500D01*
X70211000Y-95892500D01*
X70231000Y-95892500D01*
X70231000Y-94980750D01*
X70485000Y-94980750D01*
X70485000Y-95892500D01*
X71709250Y-95892500D01*
X71868000Y-95733750D01*
X71871072Y-95457000D01*
X71858812Y-95332518D01*
X71822502Y-95212820D01*
X71763537Y-95102506D01*
X71684185Y-95005815D01*
X71587494Y-94926463D01*
X71477180Y-94867498D01*
X71357482Y-94831188D01*
X71233000Y-94818928D01*
X70643750Y-94822000D01*
X70485000Y-94980750D01*
X70231000Y-94980750D01*
X70072250Y-94822000D01*
X69483000Y-94818928D01*
X69358518Y-94831188D01*
X69238820Y-94867498D01*
X69128506Y-94926463D01*
X69031815Y-95005815D01*
X68952463Y-95102506D01*
X68893498Y-95212820D01*
X68857188Y-95332518D01*
X68844928Y-95457000D01*
X68848000Y-95733750D01*
X69006748Y-95892498D01*
X68849111Y-95892498D01*
X68839502Y-95860820D01*
X68780537Y-95750506D01*
X68701185Y-95653815D01*
X68604494Y-95574463D01*
X68511806Y-95524919D01*
X68542152Y-95468145D01*
X68569386Y-95378367D01*
X68578582Y-95285000D01*
X68578582Y-94985000D01*
X68569386Y-94891633D01*
X68542152Y-94801855D01*
X68497926Y-94719114D01*
X68438409Y-94646591D01*
X68365886Y-94587074D01*
X68283145Y-94542848D01*
X68193367Y-94515614D01*
X68100000Y-94506418D01*
X66650000Y-94506418D01*
X66556633Y-94515614D01*
X66466855Y-94542848D01*
X66384114Y-94587074D01*
X66311591Y-94646591D01*
X66281711Y-94683000D01*
X65887205Y-94683000D01*
X65865000Y-94680813D01*
X65776392Y-94689540D01*
X65691190Y-94715386D01*
X65612667Y-94757357D01*
X65543841Y-94813841D01*
X65529681Y-94831095D01*
X64996096Y-95364681D01*
X64978842Y-95378841D01*
X64936696Y-95430196D01*
X64922358Y-95447667D01*
X64880386Y-95526191D01*
X64854540Y-95611393D01*
X64845813Y-95700000D01*
X64848001Y-95722215D01*
X64848000Y-98112775D01*
X63842767Y-99118010D01*
X63426316Y-99118010D01*
X63428582Y-99095000D01*
X63428582Y-98795000D01*
X63419386Y-98701633D01*
X63392152Y-98611855D01*
X63347926Y-98529114D01*
X63288409Y-98456591D01*
X63215886Y-98397074D01*
X63133145Y-98352848D01*
X63043367Y-98325614D01*
X62950000Y-98316418D01*
X61500000Y-98316418D01*
X61406633Y-98325614D01*
X61316855Y-98352848D01*
X61234114Y-98397074D01*
X61161591Y-98456591D01*
X61131711Y-98493000D01*
X60794225Y-98493000D01*
X60484796Y-98183571D01*
X60517465Y-98075877D01*
X60528582Y-97963001D01*
X60528582Y-97717617D01*
X60789876Y-97978910D01*
X60804031Y-97996159D01*
X60872857Y-98052643D01*
X60951380Y-98094614D01*
X61036583Y-98120460D01*
X61102985Y-98127000D01*
X61102986Y-98127000D01*
X61125189Y-98129187D01*
X61132884Y-98128429D01*
X61161591Y-98163409D01*
X61234114Y-98222926D01*
X61316855Y-98267152D01*
X61406633Y-98294386D01*
X61500000Y-98303582D01*
X62950000Y-98303582D01*
X63043367Y-98294386D01*
X63133145Y-98267152D01*
X63215886Y-98222926D01*
X63288409Y-98163409D01*
X63347926Y-98090886D01*
X63392152Y-98008145D01*
X63419386Y-97918367D01*
X63428582Y-97825000D01*
X63428582Y-97525000D01*
X63419386Y-97431633D01*
X63392152Y-97341855D01*
X63347926Y-97259114D01*
X63288409Y-97186591D01*
X63215886Y-97127074D01*
X63133145Y-97082848D01*
X63043367Y-97055614D01*
X62950000Y-97046418D01*
X61500000Y-97046418D01*
X61406633Y-97055614D01*
X61316855Y-97082848D01*
X61234114Y-97127074D01*
X61224433Y-97135019D01*
X59752000Y-95662587D01*
X59752000Y-95591582D01*
X59950001Y-95591582D01*
X60062877Y-95580465D01*
X60071022Y-95577994D01*
X60070823Y-95580010D01*
X60079550Y-95668617D01*
X60097307Y-95727152D01*
X60105396Y-95753819D01*
X60147367Y-95832342D01*
X60203851Y-95901169D01*
X60221110Y-95915333D01*
X61014681Y-96708905D01*
X61028841Y-96726159D01*
X61069103Y-96759201D01*
X61102074Y-96820886D01*
X61161591Y-96893409D01*
X61234114Y-96952926D01*
X61316855Y-96997152D01*
X61406633Y-97024386D01*
X61500000Y-97033582D01*
X62950000Y-97033582D01*
X63043367Y-97024386D01*
X63133145Y-96997152D01*
X63215886Y-96952926D01*
X63288409Y-96893409D01*
X63347926Y-96820886D01*
X63392152Y-96738145D01*
X63419386Y-96648367D01*
X63428582Y-96555000D01*
X63428582Y-96255000D01*
X63419386Y-96161633D01*
X63392152Y-96071855D01*
X63347926Y-95989114D01*
X63288409Y-95916591D01*
X63215886Y-95857074D01*
X63133145Y-95812848D01*
X63043367Y-95785614D01*
X62950000Y-95776418D01*
X61500000Y-95776418D01*
X61406633Y-95785614D01*
X61378402Y-95794178D01*
X61305084Y-95720860D01*
X61316855Y-95727152D01*
X61406633Y-95754386D01*
X61500000Y-95763582D01*
X62950000Y-95763582D01*
X63043367Y-95754386D01*
X63133145Y-95727152D01*
X63215886Y-95682926D01*
X63288409Y-95623409D01*
X63347926Y-95550886D01*
X63392152Y-95468145D01*
X63419386Y-95378367D01*
X63428582Y-95285000D01*
X63428582Y-94985000D01*
X63419386Y-94891633D01*
X63392152Y-94801855D01*
X63361806Y-94745081D01*
X63454494Y-94695537D01*
X63551185Y-94616185D01*
X63630537Y-94519494D01*
X63689502Y-94409180D01*
X63725812Y-94289482D01*
X63738072Y-94165000D01*
X63735000Y-94150750D01*
X63576250Y-93992000D01*
X62352000Y-93992000D01*
X62352000Y-94012000D01*
X62098000Y-94012000D01*
X62098000Y-93992000D01*
X62078000Y-93992000D01*
X62078000Y-93738000D01*
X62098000Y-93738000D01*
X62098000Y-93718000D01*
X62352000Y-93718000D01*
X62352000Y-93738000D01*
X63576250Y-93738000D01*
X63735000Y-93579250D01*
X63738072Y-93565000D01*
X63725812Y-93440518D01*
X63689502Y-93320820D01*
X63630537Y-93210506D01*
X63551185Y-93113815D01*
X63454494Y-93034463D01*
X63361806Y-92984919D01*
X63392152Y-92928145D01*
X63419386Y-92838367D01*
X63428582Y-92745000D01*
X63428582Y-92445000D01*
X63419386Y-92351633D01*
X63392152Y-92261855D01*
X63361806Y-92205081D01*
X63454494Y-92155537D01*
X63551185Y-92076185D01*
X63630537Y-91979494D01*
X63689502Y-91869180D01*
X63725812Y-91749482D01*
X63738072Y-91625000D01*
X63735000Y-91610750D01*
X63576250Y-91452000D01*
X62352000Y-91452000D01*
X62352000Y-91472000D01*
X62098000Y-91472000D01*
X62098000Y-91452000D01*
X60873750Y-91452000D01*
X60761487Y-91564263D01*
X60593582Y-91396358D01*
X60593582Y-90031999D01*
X60582465Y-89919123D01*
X60549540Y-89810586D01*
X60496074Y-89710557D01*
X60424120Y-89622880D01*
X60337752Y-89552000D01*
X61082777Y-89552000D01*
X61132642Y-89601866D01*
%TA.AperFunction,Conductor*%
D14*
G36*
X61132642Y-89601866D02*
G01*
X61102074Y-89639114D01*
X61057848Y-89721855D01*
X61030614Y-89811633D01*
X61021418Y-89905000D01*
X61021418Y-90205000D01*
X61030614Y-90298367D01*
X61057848Y-90388145D01*
X61088194Y-90444919D01*
X60995506Y-90494463D01*
X60898815Y-90573815D01*
X60819463Y-90670506D01*
X60760498Y-90780820D01*
X60724188Y-90900518D01*
X60711928Y-91025000D01*
X60715000Y-91039250D01*
X60873750Y-91198000D01*
X62098000Y-91198000D01*
X62098000Y-91178000D01*
X62352000Y-91178000D01*
X62352000Y-91198000D01*
X63576250Y-91198000D01*
X63735000Y-91039250D01*
X63738072Y-91025000D01*
X63732860Y-90972084D01*
X65659686Y-92898911D01*
X65673841Y-92916159D01*
X65742667Y-92972643D01*
X65821190Y-93014614D01*
X65906393Y-93040460D01*
X65972795Y-93047000D01*
X65972796Y-93047000D01*
X65994999Y-93049187D01*
X66017202Y-93047000D01*
X66281711Y-93047000D01*
X66311591Y-93083409D01*
X66384114Y-93142926D01*
X66466855Y-93187152D01*
X66556633Y-93214386D01*
X66650000Y-93223582D01*
X66923000Y-93223582D01*
X66923001Y-93236418D01*
X66650000Y-93236418D01*
X66556633Y-93245614D01*
X66466855Y-93272848D01*
X66384114Y-93317074D01*
X66311591Y-93376591D01*
X66252074Y-93449114D01*
X66219103Y-93510799D01*
X66178841Y-93543841D01*
X66122357Y-93612667D01*
X66080386Y-93691190D01*
X66054540Y-93776393D01*
X66045813Y-93865000D01*
X66054540Y-93953607D01*
X66080386Y-94038810D01*
X66122357Y-94117333D01*
X66178841Y-94186159D01*
X66219103Y-94219201D01*
X66252074Y-94280886D01*
X66311591Y-94353409D01*
X66384114Y-94412926D01*
X66466855Y-94457152D01*
X66556633Y-94484386D01*
X66650000Y-94493582D01*
X68100000Y-94493582D01*
X68193367Y-94484386D01*
X68283145Y-94457152D01*
X68365886Y-94412926D01*
X68438409Y-94353409D01*
X68468289Y-94317000D01*
X71469777Y-94317000D01*
X72856776Y-95704000D01*
X71859306Y-96701471D01*
X71871072Y-96582000D01*
X71868000Y-96305250D01*
X71709250Y-96146500D01*
X70485000Y-96146500D01*
X70485000Y-97058250D01*
X70643750Y-97217000D01*
X71233000Y-97220072D01*
X71352471Y-97208305D01*
X71337777Y-97223000D01*
X68619770Y-97223000D01*
X68701185Y-97156185D01*
X68780537Y-97059494D01*
X68839502Y-96949180D01*
X68875812Y-96829482D01*
X68880392Y-96782976D01*
X68893498Y-96826180D01*
X68952463Y-96936494D01*
X69031815Y-97033185D01*
X69128506Y-97112537D01*
X69238820Y-97171502D01*
X69358518Y-97207812D01*
X69483000Y-97220072D01*
X70072250Y-97217000D01*
X70231000Y-97058250D01*
X70231000Y-96146500D01*
X70211000Y-96146500D01*
X70211000Y-95892500D01*
X70231000Y-95892500D01*
X70231000Y-94980750D01*
X70485000Y-94980750D01*
X70485000Y-95892500D01*
X71709250Y-95892500D01*
X71868000Y-95733750D01*
X71871072Y-95457000D01*
X71858812Y-95332518D01*
X71822502Y-95212820D01*
X71763537Y-95102506D01*
X71684185Y-95005815D01*
X71587494Y-94926463D01*
X71477180Y-94867498D01*
X71357482Y-94831188D01*
X71233000Y-94818928D01*
X70643750Y-94822000D01*
X70485000Y-94980750D01*
X70231000Y-94980750D01*
X70072250Y-94822000D01*
X69483000Y-94818928D01*
X69358518Y-94831188D01*
X69238820Y-94867498D01*
X69128506Y-94926463D01*
X69031815Y-95005815D01*
X68952463Y-95102506D01*
X68893498Y-95212820D01*
X68857188Y-95332518D01*
X68844928Y-95457000D01*
X68848000Y-95733750D01*
X69006748Y-95892498D01*
X68849111Y-95892498D01*
X68839502Y-95860820D01*
X68780537Y-95750506D01*
X68701185Y-95653815D01*
X68604494Y-95574463D01*
X68511806Y-95524919D01*
X68542152Y-95468145D01*
X68569386Y-95378367D01*
X68578582Y-95285000D01*
X68578582Y-94985000D01*
X68569386Y-94891633D01*
X68542152Y-94801855D01*
X68497926Y-94719114D01*
X68438409Y-94646591D01*
X68365886Y-94587074D01*
X68283145Y-94542848D01*
X68193367Y-94515614D01*
X68100000Y-94506418D01*
X66650000Y-94506418D01*
X66556633Y-94515614D01*
X66466855Y-94542848D01*
X66384114Y-94587074D01*
X66311591Y-94646591D01*
X66281711Y-94683000D01*
X65887205Y-94683000D01*
X65865000Y-94680813D01*
X65776392Y-94689540D01*
X65691190Y-94715386D01*
X65612667Y-94757357D01*
X65543841Y-94813841D01*
X65529681Y-94831095D01*
X64996096Y-95364681D01*
X64978842Y-95378841D01*
X64936696Y-95430196D01*
X64922358Y-95447667D01*
X64880386Y-95526191D01*
X64854540Y-95611393D01*
X64845813Y-95700000D01*
X64848001Y-95722215D01*
X64848000Y-98112775D01*
X63842767Y-99118010D01*
X63426316Y-99118010D01*
X63428582Y-99095000D01*
X63428582Y-98795000D01*
X63419386Y-98701633D01*
X63392152Y-98611855D01*
X63347926Y-98529114D01*
X63288409Y-98456591D01*
X63215886Y-98397074D01*
X63133145Y-98352848D01*
X63043367Y-98325614D01*
X62950000Y-98316418D01*
X61500000Y-98316418D01*
X61406633Y-98325614D01*
X61316855Y-98352848D01*
X61234114Y-98397074D01*
X61161591Y-98456591D01*
X61131711Y-98493000D01*
X60794225Y-98493000D01*
X60484796Y-98183571D01*
X60517465Y-98075877D01*
X60528582Y-97963001D01*
X60528582Y-97717617D01*
X60789876Y-97978910D01*
X60804031Y-97996159D01*
X60872857Y-98052643D01*
X60951380Y-98094614D01*
X61036583Y-98120460D01*
X61102985Y-98127000D01*
X61102986Y-98127000D01*
X61125189Y-98129187D01*
X61132884Y-98128429D01*
X61161591Y-98163409D01*
X61234114Y-98222926D01*
X61316855Y-98267152D01*
X61406633Y-98294386D01*
X61500000Y-98303582D01*
X62950000Y-98303582D01*
X63043367Y-98294386D01*
X63133145Y-98267152D01*
X63215886Y-98222926D01*
X63288409Y-98163409D01*
X63347926Y-98090886D01*
X63392152Y-98008145D01*
X63419386Y-97918367D01*
X63428582Y-97825000D01*
X63428582Y-97525000D01*
X63419386Y-97431633D01*
X63392152Y-97341855D01*
X63347926Y-97259114D01*
X63288409Y-97186591D01*
X63215886Y-97127074D01*
X63133145Y-97082848D01*
X63043367Y-97055614D01*
X62950000Y-97046418D01*
X61500000Y-97046418D01*
X61406633Y-97055614D01*
X61316855Y-97082848D01*
X61234114Y-97127074D01*
X61224433Y-97135019D01*
X59752000Y-95662587D01*
X59752000Y-95591582D01*
X59950001Y-95591582D01*
X60062877Y-95580465D01*
X60071022Y-95577994D01*
X60070823Y-95580010D01*
X60079550Y-95668617D01*
X60097307Y-95727152D01*
X60105396Y-95753819D01*
X60147367Y-95832342D01*
X60203851Y-95901169D01*
X60221110Y-95915333D01*
X61014681Y-96708905D01*
X61028841Y-96726159D01*
X61069103Y-96759201D01*
X61102074Y-96820886D01*
X61161591Y-96893409D01*
X61234114Y-96952926D01*
X61316855Y-96997152D01*
X61406633Y-97024386D01*
X61500000Y-97033582D01*
X62950000Y-97033582D01*
X63043367Y-97024386D01*
X63133145Y-96997152D01*
X63215886Y-96952926D01*
X63288409Y-96893409D01*
X63347926Y-96820886D01*
X63392152Y-96738145D01*
X63419386Y-96648367D01*
X63428582Y-96555000D01*
X63428582Y-96255000D01*
X63419386Y-96161633D01*
X63392152Y-96071855D01*
X63347926Y-95989114D01*
X63288409Y-95916591D01*
X63215886Y-95857074D01*
X63133145Y-95812848D01*
X63043367Y-95785614D01*
X62950000Y-95776418D01*
X61500000Y-95776418D01*
X61406633Y-95785614D01*
X61378402Y-95794178D01*
X61305084Y-95720860D01*
X61316855Y-95727152D01*
X61406633Y-95754386D01*
X61500000Y-95763582D01*
X62950000Y-95763582D01*
X63043367Y-95754386D01*
X63133145Y-95727152D01*
X63215886Y-95682926D01*
X63288409Y-95623409D01*
X63347926Y-95550886D01*
X63392152Y-95468145D01*
X63419386Y-95378367D01*
X63428582Y-95285000D01*
X63428582Y-94985000D01*
X63419386Y-94891633D01*
X63392152Y-94801855D01*
X63361806Y-94745081D01*
X63454494Y-94695537D01*
X63551185Y-94616185D01*
X63630537Y-94519494D01*
X63689502Y-94409180D01*
X63725812Y-94289482D01*
X63738072Y-94165000D01*
X63735000Y-94150750D01*
X63576250Y-93992000D01*
X62352000Y-93992000D01*
X62352000Y-94012000D01*
X62098000Y-94012000D01*
X62098000Y-93992000D01*
X62078000Y-93992000D01*
X62078000Y-93738000D01*
X62098000Y-93738000D01*
X62098000Y-93718000D01*
X62352000Y-93718000D01*
X62352000Y-93738000D01*
X63576250Y-93738000D01*
X63735000Y-93579250D01*
X63738072Y-93565000D01*
X63725812Y-93440518D01*
X63689502Y-93320820D01*
X63630537Y-93210506D01*
X63551185Y-93113815D01*
X63454494Y-93034463D01*
X63361806Y-92984919D01*
X63392152Y-92928145D01*
X63419386Y-92838367D01*
X63428582Y-92745000D01*
X63428582Y-92445000D01*
X63419386Y-92351633D01*
X63392152Y-92261855D01*
X63361806Y-92205081D01*
X63454494Y-92155537D01*
X63551185Y-92076185D01*
X63630537Y-91979494D01*
X63689502Y-91869180D01*
X63725812Y-91749482D01*
X63738072Y-91625000D01*
X63735000Y-91610750D01*
X63576250Y-91452000D01*
X62352000Y-91452000D01*
X62352000Y-91472000D01*
X62098000Y-91472000D01*
X62098000Y-91452000D01*
X60873750Y-91452000D01*
X60761487Y-91564263D01*
X60593582Y-91396358D01*
X60593582Y-90031999D01*
X60582465Y-89919123D01*
X60549540Y-89810586D01*
X60496074Y-89710557D01*
X60424120Y-89622880D01*
X60337752Y-89552000D01*
X61082777Y-89552000D01*
X61132642Y-89601866D01*
G37*
%TD.AperFunction*%
%TD*%
M02*
