%TF.GenerationSoftware,KiCad,Pcbnew,(5.1.9)-1*%
%TF.CreationDate,2021-02-09T16:44:42+01:00*%
%TF.ProjectId,Pro,50726f2e-6b69-4636-9164-5f7063625858,rev?*%
%TF.SameCoordinates,Original*%
%TF.FileFunction,Other,Fab,Top*%
%FSLAX46Y46*%
G04 Gerber Fmt 4.6, Leading zero omitted, Abs format (unit mm)*
G04 Created by KiCad (PCBNEW (5.1.9)-1) date 2021-02-09 16:44:42*
%MOMM*%
%LPD*%
G01*
G04 APERTURE LIST*
%ADD10C,0.150000*%
%ADD11C,0.100000*%
%ADD12C,0.120000*%
G04 APERTURE END LIST*
D10*
X77933333Y-97600000D02*
X77838095Y-97552380D01*
X77695238Y-97552380D01*
X77552380Y-97600000D01*
X77457142Y-97695238D01*
X77409523Y-97790476D01*
X77361904Y-97980952D01*
X77361904Y-98123809D01*
X77409523Y-98314285D01*
X77457142Y-98409523D01*
X77552380Y-98504761D01*
X77695238Y-98552380D01*
X77790476Y-98552380D01*
X77933333Y-98504761D01*
X77980952Y-98457142D01*
X77980952Y-98123809D01*
X77790476Y-98123809D01*
X78409523Y-98552380D02*
X78409523Y-97552380D01*
X78980952Y-98552380D01*
X78980952Y-97552380D01*
X79457142Y-98552380D02*
X79457142Y-97552380D01*
X79695238Y-97552380D01*
X79838095Y-97600000D01*
X79933333Y-97695238D01*
X79980952Y-97790476D01*
X80028571Y-97980952D01*
X80028571Y-98123809D01*
X79980952Y-98314285D01*
X79933333Y-98409523D01*
X79838095Y-98504761D01*
X79695238Y-98552380D01*
X79457142Y-98552380D01*
X77266666Y-95152380D02*
X77600000Y-96152380D01*
X77933333Y-95152380D01*
X78838095Y-96057142D02*
X78790476Y-96104761D01*
X78647619Y-96152380D01*
X78552380Y-96152380D01*
X78409523Y-96104761D01*
X78314285Y-96009523D01*
X78266666Y-95914285D01*
X78219047Y-95723809D01*
X78219047Y-95580952D01*
X78266666Y-95390476D01*
X78314285Y-95295238D01*
X78409523Y-95200000D01*
X78552380Y-95152380D01*
X78647619Y-95152380D01*
X78790476Y-95200000D01*
X78838095Y-95247619D01*
X79838095Y-96057142D02*
X79790476Y-96104761D01*
X79647619Y-96152380D01*
X79552380Y-96152380D01*
X79409523Y-96104761D01*
X79314285Y-96009523D01*
X79266666Y-95914285D01*
X79219047Y-95723809D01*
X79219047Y-95580952D01*
X79266666Y-95390476D01*
X79314285Y-95295238D01*
X79409523Y-95200000D01*
X79552380Y-95152380D01*
X79647619Y-95152380D01*
X79790476Y-95200000D01*
X79838095Y-95247619D01*
X77361904Y-93704761D02*
X77504761Y-93752380D01*
X77742857Y-93752380D01*
X77838095Y-93704761D01*
X77885714Y-93657142D01*
X77933333Y-93561904D01*
X77933333Y-93466666D01*
X77885714Y-93371428D01*
X77838095Y-93323809D01*
X77742857Y-93276190D01*
X77552381Y-93228571D01*
X77457142Y-93180952D01*
X77409523Y-93133333D01*
X77361904Y-93038095D01*
X77361904Y-92942857D01*
X77409523Y-92847619D01*
X77457142Y-92800000D01*
X77552381Y-92752380D01*
X77790476Y-92752380D01*
X77933333Y-92800000D01*
X78933333Y-93657142D02*
X78885714Y-93704761D01*
X78742857Y-93752380D01*
X78647619Y-93752380D01*
X78504761Y-93704761D01*
X78409523Y-93609523D01*
X78361904Y-93514285D01*
X78314285Y-93323809D01*
X78314285Y-93180952D01*
X78361904Y-92990476D01*
X78409523Y-92895238D01*
X78504761Y-92800000D01*
X78647619Y-92752380D01*
X78742857Y-92752380D01*
X78885714Y-92800000D01*
X78933333Y-92847619D01*
X79838095Y-93752380D02*
X79361904Y-93752380D01*
X79361904Y-92752380D01*
X80171428Y-93752380D02*
X80171428Y-92752380D01*
X80742857Y-93752380D02*
X80314285Y-93180952D01*
X80742857Y-92752380D02*
X80171428Y-93323809D01*
X77409523Y-91352380D02*
X77409523Y-90352380D01*
X77647618Y-90352380D01*
X77790476Y-90400000D01*
X77885714Y-90495238D01*
X77933333Y-90590476D01*
X77980952Y-90780952D01*
X77980952Y-90923809D01*
X77933333Y-91114285D01*
X77885714Y-91209523D01*
X77790476Y-91304761D01*
X77647618Y-91352380D01*
X77409523Y-91352380D01*
X78599999Y-90352380D02*
X78790476Y-90352380D01*
X78885714Y-90400000D01*
X78980952Y-90495238D01*
X79028571Y-90685714D01*
X79028571Y-91019047D01*
X78980952Y-91209523D01*
X78885714Y-91304761D01*
X78790476Y-91352380D01*
X78599999Y-91352380D01*
X78504761Y-91304761D01*
X78409523Y-91209523D01*
X78361904Y-91019047D01*
X78361904Y-90685714D01*
X78409523Y-90495238D01*
X78504761Y-90400000D01*
X78599999Y-90352380D01*
X43666666Y-98428571D02*
X44000000Y-98428571D01*
X44142857Y-98952380D02*
X43666666Y-98952380D01*
X43666666Y-97952380D01*
X44142857Y-97952380D01*
X44571428Y-98571428D02*
X45333333Y-98571428D01*
X43666667Y-96066666D02*
X44142857Y-96066666D01*
X43571429Y-96352380D02*
X43904762Y-95352380D01*
X44238095Y-96352380D01*
X44571429Y-95971428D02*
X45333333Y-95971428D01*
X43666667Y-93466666D02*
X44142857Y-93466666D01*
X43571429Y-93752380D02*
X43904762Y-92752380D01*
X44238095Y-93752380D01*
X44571429Y-93371428D02*
X45333333Y-93371428D01*
X44952381Y-93752380D02*
X44952381Y-92990476D01*
X43666666Y-90628571D02*
X44000000Y-90628571D01*
X44142857Y-91152380D02*
X43666666Y-91152380D01*
X43666666Y-90152380D01*
X44142857Y-90152380D01*
X44571428Y-90771428D02*
X45333333Y-90771428D01*
X44952380Y-91152380D02*
X44952380Y-90390476D01*
D11*
%TO.C,P1*%
X47752000Y-99489000D02*
X45847000Y-99489000D01*
X45847000Y-99489000D02*
X45847000Y-89329000D01*
X45847000Y-89329000D02*
X48387000Y-89329000D01*
X48387000Y-89329000D02*
X48387000Y-98854000D01*
X48387000Y-98854000D02*
X47752000Y-99489000D01*
%TO.C,J1*%
X75946000Y-99514000D02*
X74041000Y-99514000D01*
X74041000Y-99514000D02*
X74041000Y-89354000D01*
X74041000Y-89354000D02*
X76581000Y-89354000D01*
X76581000Y-89354000D02*
X76581000Y-98879000D01*
X76581000Y-98879000D02*
X75946000Y-99514000D01*
%TO.C,R3*%
X71158000Y-95882000D02*
X71158000Y-99082000D01*
X69558000Y-95882000D02*
X71158000Y-95882000D01*
X69558000Y-99082000D02*
X69558000Y-95882000D01*
X71158000Y-99082000D02*
X69558000Y-99082000D01*
%TO.C,U1*%
X62850000Y-90525000D02*
X63825000Y-89550000D01*
X62850000Y-99450000D02*
X62850000Y-90525000D01*
X66750000Y-99450000D02*
X62850000Y-99450000D01*
X66750000Y-89550000D02*
X66750000Y-99450000D01*
X63825000Y-89550000D02*
X66750000Y-89550000D01*
%TO.C,C2*%
X56615000Y-89882000D02*
X59815000Y-89882000D01*
X56615000Y-92382000D02*
X56615000Y-89882000D01*
X59815000Y-92382000D02*
X56615000Y-92382000D01*
X59815000Y-89882000D02*
X59815000Y-92382000D01*
%TO.C,C1*%
X58500000Y-97763000D02*
X58500000Y-94563000D01*
X60100000Y-97763000D02*
X58500000Y-97763000D01*
X60100000Y-94563000D02*
X60100000Y-97763000D01*
X58500000Y-94563000D02*
X60100000Y-94563000D01*
%TO.C,R1*%
X56211500Y-94150000D02*
X56211500Y-95750000D01*
X56211500Y-95750000D02*
X53011500Y-95750000D01*
X53011500Y-95750000D02*
X53011500Y-94150000D01*
X53011500Y-94150000D02*
X56211500Y-94150000D01*
%TO.C,R2*%
X53071500Y-96555000D02*
X56271500Y-96555000D01*
X53071500Y-98155000D02*
X53071500Y-96555000D01*
X56271500Y-98155000D02*
X53071500Y-98155000D01*
X56271500Y-96555000D02*
X56271500Y-98155000D01*
%TO.C,C3*%
X51789000Y-92382000D02*
X51789000Y-89882000D01*
X51789000Y-89882000D02*
X54989000Y-89882000D01*
X54989000Y-89882000D02*
X54989000Y-92382000D01*
X54989000Y-92382000D02*
X51789000Y-92382000D01*
%TD*%
%TO.C,J1*%
D10*
X72766666Y-89252380D02*
X72766666Y-89966666D01*
X72719047Y-90109523D01*
X72623809Y-90204761D01*
X72480952Y-90252380D01*
X72385714Y-90252380D01*
X73766666Y-90252380D02*
X73195238Y-90252380D01*
X73480952Y-90252380D02*
X73480952Y-89252380D01*
X73385714Y-89395238D01*
X73290476Y-89490476D01*
X73195238Y-89538095D01*
%TO.C,R3*%
X70252380Y-93652380D02*
X70347619Y-93652380D01*
X70442857Y-93700000D01*
X70490476Y-93747619D01*
X70538095Y-93842857D01*
X70585714Y-94033333D01*
X70585714Y-94271428D01*
X70538095Y-94461904D01*
X70490476Y-94557142D01*
X70442857Y-94604761D01*
X70347619Y-94652380D01*
X70252380Y-94652380D01*
X70157142Y-94604761D01*
X70109523Y-94557142D01*
X70061904Y-94461904D01*
X70014285Y-94271428D01*
X70014285Y-94033333D01*
X70061904Y-93842857D01*
X70109523Y-93747619D01*
X70157142Y-93700000D01*
X70252380Y-93652380D01*
D12*
X72166666Y-96661904D02*
X71900000Y-96280952D01*
X71709523Y-96661904D02*
X71709523Y-95861904D01*
X72014285Y-95861904D01*
X72090476Y-95900000D01*
X72128571Y-95938095D01*
X72166666Y-96014285D01*
X72166666Y-96128571D01*
X72128571Y-96204761D01*
X72090476Y-96242857D01*
X72014285Y-96280952D01*
X71709523Y-96280952D01*
X72433333Y-95861904D02*
X72928571Y-95861904D01*
X72661904Y-96166666D01*
X72776190Y-96166666D01*
X72852380Y-96204761D01*
X72890476Y-96242857D01*
X72928571Y-96319047D01*
X72928571Y-96509523D01*
X72890476Y-96585714D01*
X72852380Y-96623809D01*
X72776190Y-96661904D01*
X72547619Y-96661904D01*
X72471428Y-96623809D01*
X72433333Y-96585714D01*
%TO.C,U1*%
D10*
X62080952Y-100266666D02*
X62557142Y-100266666D01*
X61985714Y-100552380D02*
X62319047Y-99552380D01*
X62652380Y-100552380D01*
X62985714Y-100552380D02*
X62985714Y-99552380D01*
X63223809Y-99552380D01*
X63366666Y-99600000D01*
X63461904Y-99695238D01*
X63509523Y-99790476D01*
X63557142Y-99980952D01*
X63557142Y-100123809D01*
X63509523Y-100314285D01*
X63461904Y-100409523D01*
X63366666Y-100504761D01*
X63223809Y-100552380D01*
X62985714Y-100552380D01*
X63938095Y-100504761D02*
X64080952Y-100552380D01*
X64319047Y-100552380D01*
X64414285Y-100504761D01*
X64461904Y-100457142D01*
X64509523Y-100361904D01*
X64509523Y-100266666D01*
X64461904Y-100171428D01*
X64414285Y-100123809D01*
X64319047Y-100076190D01*
X64128571Y-100028571D01*
X64033333Y-99980952D01*
X63985714Y-99933333D01*
X63938095Y-99838095D01*
X63938095Y-99742857D01*
X63985714Y-99647619D01*
X64033333Y-99600000D01*
X64128571Y-99552380D01*
X64366666Y-99552380D01*
X64509523Y-99600000D01*
X65461904Y-100552380D02*
X64890476Y-100552380D01*
X65176190Y-100552380D02*
X65176190Y-99552380D01*
X65080952Y-99695238D01*
X64985714Y-99790476D01*
X64890476Y-99838095D01*
X65842857Y-99647619D02*
X65890476Y-99600000D01*
X65985714Y-99552380D01*
X66223809Y-99552380D01*
X66319047Y-99600000D01*
X66366666Y-99647619D01*
X66414285Y-99742857D01*
X66414285Y-99838095D01*
X66366666Y-99980952D01*
X65795238Y-100552380D01*
X66414285Y-100552380D01*
X66747619Y-99552380D02*
X67366666Y-99552380D01*
X67033333Y-99933333D01*
X67176190Y-99933333D01*
X67271428Y-99980952D01*
X67319047Y-100028571D01*
X67366666Y-100123809D01*
X67366666Y-100361904D01*
X67319047Y-100457142D01*
X67271428Y-100504761D01*
X67176190Y-100552380D01*
X66890476Y-100552380D01*
X66795238Y-100504761D01*
X66747619Y-100457142D01*
X68319047Y-100552380D02*
X67747619Y-100552380D01*
X68033333Y-100552380D02*
X68033333Y-99552380D01*
X67938095Y-99695238D01*
X67842857Y-99790476D01*
X67747619Y-99838095D01*
X64053333Y-93938333D02*
X64053333Y-94731666D01*
X64100000Y-94825000D01*
X64146666Y-94871666D01*
X64240000Y-94918333D01*
X64426666Y-94918333D01*
X64520000Y-94871666D01*
X64566666Y-94825000D01*
X64613333Y-94731666D01*
X64613333Y-93938333D01*
X65593333Y-94918333D02*
X65033333Y-94918333D01*
X65313333Y-94918333D02*
X65313333Y-93938333D01*
X65220000Y-94078333D01*
X65126666Y-94171666D01*
X65033333Y-94218333D01*
%TO.C,C2*%
X57000714Y-88284380D02*
X57095952Y-88284380D01*
X57191190Y-88332000D01*
X57238809Y-88379619D01*
X57286428Y-88474857D01*
X57334047Y-88665333D01*
X57334047Y-88903428D01*
X57286428Y-89093904D01*
X57238809Y-89189142D01*
X57191190Y-89236761D01*
X57095952Y-89284380D01*
X57000714Y-89284380D01*
X56905476Y-89236761D01*
X56857857Y-89189142D01*
X56810238Y-89093904D01*
X56762619Y-88903428D01*
X56762619Y-88665333D01*
X56810238Y-88474857D01*
X56857857Y-88379619D01*
X56905476Y-88332000D01*
X57000714Y-88284380D01*
X57762619Y-89189142D02*
X57810238Y-89236761D01*
X57762619Y-89284380D01*
X57715000Y-89236761D01*
X57762619Y-89189142D01*
X57762619Y-89284380D01*
X58762619Y-89284380D02*
X58191190Y-89284380D01*
X58476904Y-89284380D02*
X58476904Y-88284380D01*
X58381666Y-88427238D01*
X58286428Y-88522476D01*
X58191190Y-88570095D01*
X59619761Y-88617714D02*
X59619761Y-89284380D01*
X59191190Y-88617714D02*
X59191190Y-89141523D01*
X59238809Y-89236761D01*
X59334047Y-89284380D01*
X59476904Y-89284380D01*
X59572142Y-89236761D01*
X59619761Y-89189142D01*
D12*
X58081666Y-91417714D02*
X58043571Y-91455809D01*
X57929285Y-91493904D01*
X57853095Y-91493904D01*
X57738809Y-91455809D01*
X57662619Y-91379619D01*
X57624523Y-91303428D01*
X57586428Y-91151047D01*
X57586428Y-91036761D01*
X57624523Y-90884380D01*
X57662619Y-90808190D01*
X57738809Y-90732000D01*
X57853095Y-90693904D01*
X57929285Y-90693904D01*
X58043571Y-90732000D01*
X58081666Y-90770095D01*
X58386428Y-90770095D02*
X58424523Y-90732000D01*
X58500714Y-90693904D01*
X58691190Y-90693904D01*
X58767380Y-90732000D01*
X58805476Y-90770095D01*
X58843571Y-90846285D01*
X58843571Y-90922476D01*
X58805476Y-91036761D01*
X58348333Y-91493904D01*
X58843571Y-91493904D01*
%TO.C,C1*%
D10*
X57885714Y-98752380D02*
X57980952Y-98752380D01*
X58076190Y-98800000D01*
X58123809Y-98847619D01*
X58171428Y-98942857D01*
X58219047Y-99133333D01*
X58219047Y-99371428D01*
X58171428Y-99561904D01*
X58123809Y-99657142D01*
X58076190Y-99704761D01*
X57980952Y-99752380D01*
X57885714Y-99752380D01*
X57790476Y-99704761D01*
X57742857Y-99657142D01*
X57695238Y-99561904D01*
X57647619Y-99371428D01*
X57647619Y-99133333D01*
X57695238Y-98942857D01*
X57742857Y-98847619D01*
X57790476Y-98800000D01*
X57885714Y-98752380D01*
X58647619Y-99657142D02*
X58695238Y-99704761D01*
X58647619Y-99752380D01*
X58600000Y-99704761D01*
X58647619Y-99657142D01*
X58647619Y-99752380D01*
X59647619Y-99752380D02*
X59076190Y-99752380D01*
X59361904Y-99752380D02*
X59361904Y-98752380D01*
X59266666Y-98895238D01*
X59171428Y-98990476D01*
X59076190Y-99038095D01*
X60504761Y-99085714D02*
X60504761Y-99752380D01*
X60076190Y-99085714D02*
X60076190Y-99609523D01*
X60123809Y-99704761D01*
X60219047Y-99752380D01*
X60361904Y-99752380D01*
X60457142Y-99704761D01*
X60504761Y-99657142D01*
D12*
X59535714Y-96246333D02*
X59573809Y-96284428D01*
X59611904Y-96398714D01*
X59611904Y-96474904D01*
X59573809Y-96589190D01*
X59497619Y-96665380D01*
X59421428Y-96703476D01*
X59269047Y-96741571D01*
X59154761Y-96741571D01*
X59002380Y-96703476D01*
X58926190Y-96665380D01*
X58850000Y-96589190D01*
X58811904Y-96474904D01*
X58811904Y-96398714D01*
X58850000Y-96284428D01*
X58888095Y-96246333D01*
X59611904Y-95484428D02*
X59611904Y-95941571D01*
X59611904Y-95713000D02*
X58811904Y-95713000D01*
X58926190Y-95789190D01*
X59002380Y-95865380D01*
X59040476Y-95941571D01*
%TO.C,R1*%
D10*
X52533333Y-93952380D02*
X51961904Y-93952380D01*
X52247619Y-93952380D02*
X52247619Y-92952380D01*
X52152380Y-93095238D01*
X52057142Y-93190476D01*
X51961904Y-93238095D01*
X53152380Y-92952380D02*
X53247619Y-92952380D01*
X53342857Y-93000000D01*
X53390476Y-93047619D01*
X53438095Y-93142857D01*
X53485714Y-93333333D01*
X53485714Y-93571428D01*
X53438095Y-93761904D01*
X53390476Y-93857142D01*
X53342857Y-93904761D01*
X53247619Y-93952380D01*
X53152380Y-93952380D01*
X53057142Y-93904761D01*
X53009523Y-93857142D01*
X52961904Y-93761904D01*
X52914285Y-93571428D01*
X52914285Y-93333333D01*
X52961904Y-93142857D01*
X53009523Y-93047619D01*
X53057142Y-93000000D01*
X53152380Y-92952380D01*
X54104761Y-92952380D02*
X54200000Y-92952380D01*
X54295238Y-93000000D01*
X54342857Y-93047619D01*
X54390476Y-93142857D01*
X54438095Y-93333333D01*
X54438095Y-93571428D01*
X54390476Y-93761904D01*
X54342857Y-93857142D01*
X54295238Y-93904761D01*
X54200000Y-93952380D01*
X54104761Y-93952380D01*
X54009523Y-93904761D01*
X53961904Y-93857142D01*
X53914285Y-93761904D01*
X53866666Y-93571428D01*
X53866666Y-93333333D01*
X53914285Y-93142857D01*
X53961904Y-93047619D01*
X54009523Y-93000000D01*
X54104761Y-92952380D01*
D12*
X54478166Y-95311904D02*
X54211500Y-94930952D01*
X54021023Y-95311904D02*
X54021023Y-94511904D01*
X54325785Y-94511904D01*
X54401976Y-94550000D01*
X54440071Y-94588095D01*
X54478166Y-94664285D01*
X54478166Y-94778571D01*
X54440071Y-94854761D01*
X54401976Y-94892857D01*
X54325785Y-94930952D01*
X54021023Y-94930952D01*
X55240071Y-95311904D02*
X54782928Y-95311904D01*
X55011500Y-95311904D02*
X55011500Y-94511904D01*
X54935309Y-94626190D01*
X54859119Y-94702380D01*
X54782928Y-94740476D01*
%TO.C,R2*%
D10*
X52633333Y-99652380D02*
X52061904Y-99652380D01*
X52347619Y-99652380D02*
X52347619Y-98652380D01*
X52252380Y-98795238D01*
X52157142Y-98890476D01*
X52061904Y-98938095D01*
X53252380Y-98652380D02*
X53347619Y-98652380D01*
X53442857Y-98700000D01*
X53490476Y-98747619D01*
X53538095Y-98842857D01*
X53585714Y-99033333D01*
X53585714Y-99271428D01*
X53538095Y-99461904D01*
X53490476Y-99557142D01*
X53442857Y-99604761D01*
X53347619Y-99652380D01*
X53252380Y-99652380D01*
X53157142Y-99604761D01*
X53109523Y-99557142D01*
X53061904Y-99461904D01*
X53014285Y-99271428D01*
X53014285Y-99033333D01*
X53061904Y-98842857D01*
X53109523Y-98747619D01*
X53157142Y-98700000D01*
X53252380Y-98652380D01*
X54204761Y-98652380D02*
X54300000Y-98652380D01*
X54395238Y-98700000D01*
X54442857Y-98747619D01*
X54490476Y-98842857D01*
X54538095Y-99033333D01*
X54538095Y-99271428D01*
X54490476Y-99461904D01*
X54442857Y-99557142D01*
X54395238Y-99604761D01*
X54300000Y-99652380D01*
X54204761Y-99652380D01*
X54109523Y-99604761D01*
X54061904Y-99557142D01*
X54014285Y-99461904D01*
X53966666Y-99271428D01*
X53966666Y-99033333D01*
X54014285Y-98842857D01*
X54061904Y-98747619D01*
X54109523Y-98700000D01*
X54204761Y-98652380D01*
D12*
X54538166Y-97716904D02*
X54271500Y-97335952D01*
X54081023Y-97716904D02*
X54081023Y-96916904D01*
X54385785Y-96916904D01*
X54461976Y-96955000D01*
X54500071Y-96993095D01*
X54538166Y-97069285D01*
X54538166Y-97183571D01*
X54500071Y-97259761D01*
X54461976Y-97297857D01*
X54385785Y-97335952D01*
X54081023Y-97335952D01*
X54842928Y-96993095D02*
X54881023Y-96955000D01*
X54957214Y-96916904D01*
X55147690Y-96916904D01*
X55223880Y-96955000D01*
X55261976Y-96993095D01*
X55300071Y-97069285D01*
X55300071Y-97145476D01*
X55261976Y-97259761D01*
X54804833Y-97716904D01*
X55300071Y-97716904D01*
%TO.C,C3*%
D10*
X52380952Y-89252380D02*
X51809523Y-89252380D01*
X52095238Y-89252380D02*
X52095238Y-88252380D01*
X52000000Y-88395238D01*
X51904761Y-88490476D01*
X51809523Y-88538095D01*
X53000000Y-88252380D02*
X53095238Y-88252380D01*
X53190476Y-88300000D01*
X53238095Y-88347619D01*
X53285714Y-88442857D01*
X53333333Y-88633333D01*
X53333333Y-88871428D01*
X53285714Y-89061904D01*
X53238095Y-89157142D01*
X53190476Y-89204761D01*
X53095238Y-89252380D01*
X53000000Y-89252380D01*
X52904761Y-89204761D01*
X52857142Y-89157142D01*
X52809523Y-89061904D01*
X52761904Y-88871428D01*
X52761904Y-88633333D01*
X52809523Y-88442857D01*
X52857142Y-88347619D01*
X52904761Y-88300000D01*
X53000000Y-88252380D01*
X53952380Y-88252380D02*
X54047619Y-88252380D01*
X54142857Y-88300000D01*
X54190476Y-88347619D01*
X54238095Y-88442857D01*
X54285714Y-88633333D01*
X54285714Y-88871428D01*
X54238095Y-89061904D01*
X54190476Y-89157142D01*
X54142857Y-89204761D01*
X54047619Y-89252380D01*
X53952380Y-89252380D01*
X53857142Y-89204761D01*
X53809523Y-89157142D01*
X53761904Y-89061904D01*
X53714285Y-88871428D01*
X53714285Y-88633333D01*
X53761904Y-88442857D01*
X53809523Y-88347619D01*
X53857142Y-88300000D01*
X53952380Y-88252380D01*
X54714285Y-88585714D02*
X54714285Y-89252380D01*
X54714285Y-88680952D02*
X54761904Y-88633333D01*
X54857142Y-88585714D01*
X55000000Y-88585714D01*
X55095238Y-88633333D01*
X55142857Y-88728571D01*
X55142857Y-89252380D01*
D12*
X53674714Y-91265333D02*
X53712809Y-91303428D01*
X53750904Y-91417714D01*
X53750904Y-91493904D01*
X53712809Y-91608190D01*
X53636619Y-91684380D01*
X53560428Y-91722476D01*
X53408047Y-91760571D01*
X53293761Y-91760571D01*
X53141380Y-91722476D01*
X53065190Y-91684380D01*
X52989000Y-91608190D01*
X52950904Y-91493904D01*
X52950904Y-91417714D01*
X52989000Y-91303428D01*
X53027095Y-91265333D01*
X52950904Y-90998666D02*
X52950904Y-90503428D01*
X53255666Y-90770095D01*
X53255666Y-90655809D01*
X53293761Y-90579619D01*
X53331857Y-90541523D01*
X53408047Y-90503428D01*
X53598523Y-90503428D01*
X53674714Y-90541523D01*
X53712809Y-90579619D01*
X53750904Y-90655809D01*
X53750904Y-90884380D01*
X53712809Y-90960571D01*
X53674714Y-90998666D01*
%TD*%
M02*
